<mxfile host="Electron" modified="2023-07-27T03:49:38.152Z" agent="Mozilla/5.0 (X11; Linux x86_64) AppleWebKit/537.36 (KHTML, like Gecko) draw.io/21.2.8 Chrome/112.0.5615.165 Electron/24.2.0 Safari/537.36" etag="YBxsb8__1OJg6r-f513_" version="21.2.8" type="device">
  <diagram name="brain" id="ZRLf6JSjRhF3UeJAD4nz">
    <mxGraphModel dx="1538" dy="925" grid="1" gridSize="10" guides="1" tooltips="1" connect="1" arrows="1" fold="1" page="0" pageScale="1" pageWidth="827" pageHeight="1169" math="0" shadow="0">
      <root>
        <mxCell id="rad2TlyHusP4lz5AHPMq-0" />
        <mxCell id="rad2TlyHusP4lz5AHPMq-1" parent="rad2TlyHusP4lz5AHPMq-0" />
        <mxCell id="rad2TlyHusP4lz5AHPMq-3" value="W" style="whiteSpace=wrap;html=1;aspect=fixed;fillColor=#E6E6E6;rounded=1;fontStyle=1" parent="rad2TlyHusP4lz5AHPMq-1" vertex="1">
          <mxGeometry x="138" y="112" width="40" height="40" as="geometry" />
        </mxCell>
        <mxCell id="rad2TlyHusP4lz5AHPMq-4" value="F" style="whiteSpace=wrap;html=1;aspect=fixed;fillColor=#E6E6E6;rounded=1;fontStyle=1" parent="rad2TlyHusP4lz5AHPMq-1" vertex="1">
          <mxGeometry x="178" y="97" width="40" height="40" as="geometry" />
        </mxCell>
        <mxCell id="rad2TlyHusP4lz5AHPMq-5" value="P" style="whiteSpace=wrap;html=1;aspect=fixed;fillColor=#E6E6E6;rounded=1;fontStyle=1" parent="rad2TlyHusP4lz5AHPMq-1" vertex="1">
          <mxGeometry x="218" y="112" width="40" height="40" as="geometry" />
        </mxCell>
        <mxCell id="rad2TlyHusP4lz5AHPMq-6" value="B" style="whiteSpace=wrap;html=1;aspect=fixed;fillColor=#E6E6E6;rounded=1;fontStyle=1" parent="rad2TlyHusP4lz5AHPMq-1" vertex="1">
          <mxGeometry x="258" y="120" width="40" height="40" as="geometry" />
        </mxCell>
        <mxCell id="rad2TlyHusP4lz5AHPMq-7" value="A (ctrl)" style="aspect=fixed;fillColor=#E6E6E6;rounded=1;strokeColor=default;spacing=2;whiteSpace=wrap;html=1;fontStyle=1" parent="rad2TlyHusP4lz5AHPMq-1" vertex="1">
          <mxGeometry x="98" y="180" width="39" height="39" as="geometry" />
        </mxCell>
        <mxCell id="rad2TlyHusP4lz5AHPMq-8" value="R &#xa;(alt)" style="whiteSpace=wrap;html=1;aspect=fixed;fillColor=#E6E6E6;rounded=1;strokeColor=default;fontStyle=1" parent="rad2TlyHusP4lz5AHPMq-1" vertex="1">
          <mxGeometry x="138" y="152" width="40" height="40" as="geometry" />
        </mxCell>
        <mxCell id="rad2TlyHusP4lz5AHPMq-9" value="S&#xa;(gui)" style="whiteSpace=wrap;html=1;aspect=fixed;fillColor=#E6E6E6;rounded=1;strokeColor=default;fontStyle=1" parent="rad2TlyHusP4lz5AHPMq-1" vertex="1">
          <mxGeometry x="178" y="137" width="40" height="40" as="geometry" />
        </mxCell>
        <mxCell id="rad2TlyHusP4lz5AHPMq-10" value="T (shift)" style="whiteSpace=wrap;html=1;aspect=fixed;fillColor=#E6E6E6;rounded=1;strokeColor=default;fontStyle=1" parent="rad2TlyHusP4lz5AHPMq-1" vertex="1">
          <mxGeometry x="218" y="152" width="40" height="40" as="geometry" />
        </mxCell>
        <mxCell id="rad2TlyHusP4lz5AHPMq-11" value="G" style="whiteSpace=wrap;html=1;aspect=fixed;fillColor=#E6E6E6;rounded=1;fontStyle=1" parent="rad2TlyHusP4lz5AHPMq-1" vertex="1">
          <mxGeometry x="258" y="160" width="40" height="40" as="geometry" />
        </mxCell>
        <mxCell id="rad2TlyHusP4lz5AHPMq-12" value="Z" style="whiteSpace=wrap;html=1;aspect=fixed;fillColor=#E6E6E6;rounded=1;fontStyle=1" parent="rad2TlyHusP4lz5AHPMq-1" vertex="1">
          <mxGeometry x="98" y="219" width="40" height="40" as="geometry" />
        </mxCell>
        <mxCell id="rad2TlyHusP4lz5AHPMq-13" value="X" style="whiteSpace=wrap;html=1;aspect=fixed;fillColor=#E6E6E6;rounded=1;fontStyle=1" parent="rad2TlyHusP4lz5AHPMq-1" vertex="1">
          <mxGeometry x="138" y="192" width="40" height="40" as="geometry" />
        </mxCell>
        <mxCell id="rad2TlyHusP4lz5AHPMq-14" value="C" style="whiteSpace=wrap;html=1;aspect=fixed;fillColor=#E6E6E6;rounded=1;fontStyle=1" parent="rad2TlyHusP4lz5AHPMq-1" vertex="1">
          <mxGeometry x="178" y="177" width="40" height="40" as="geometry" />
        </mxCell>
        <mxCell id="rad2TlyHusP4lz5AHPMq-15" value="D" style="whiteSpace=wrap;html=1;aspect=fixed;fillColor=#E6E6E6;rounded=1;fontStyle=1" parent="rad2TlyHusP4lz5AHPMq-1" vertex="1">
          <mxGeometry x="218" y="192" width="40" height="40" as="geometry" />
        </mxCell>
        <mxCell id="rad2TlyHusP4lz5AHPMq-16" value="V" style="whiteSpace=wrap;html=1;aspect=fixed;fillColor=#E6E6E6;rounded=1;fontStyle=1" parent="rad2TlyHusP4lz5AHPMq-1" vertex="1">
          <mxGeometry x="258" y="200" width="40" height="40" as="geometry" />
        </mxCell>
        <mxCell id="rad2TlyHusP4lz5AHPMq-17" value="Sym" style="whiteSpace=wrap;html=1;aspect=fixed;rotation=15;fontSize=17;fontFamily=Verdana;fontStyle=1;fillColor=#a20025;strokeColor=#6F0000;fontColor=#ffffff;rounded=1;" parent="rad2TlyHusP4lz5AHPMq-1" vertex="1">
          <mxGeometry x="238" y="246" width="40" height="40" as="geometry" />
        </mxCell>
        <mxCell id="rad2TlyHusP4lz5AHPMq-18" value="Spc" style="whiteSpace=wrap;html=1;aspect=fixed;rotation=30;fontSize=17;fontFamily=Verdana;fontStyle=1;fontColor=#AFB9C7;fillColor=#383E47;rounded=1;align=center;verticalAlign=middle;" parent="rad2TlyHusP4lz5AHPMq-1" vertex="1">
          <mxGeometry x="286" y="264" width="40" height="40" as="geometry" />
        </mxCell>
        <mxCell id="rad2TlyHusP4lz5AHPMq-19" value="J" style="whiteSpace=wrap;html=1;aspect=fixed;fillColor=#E6E6E6;rounded=1;fontStyle=1" parent="rad2TlyHusP4lz5AHPMq-1" vertex="1">
          <mxGeometry x="478" y="120" width="40" height="40" as="geometry" />
        </mxCell>
        <mxCell id="rad2TlyHusP4lz5AHPMq-20" value="U" style="whiteSpace=wrap;html=1;aspect=fixed;fillColor=#E6E6E6;rounded=1;fontStyle=1" parent="rad2TlyHusP4lz5AHPMq-1" vertex="1">
          <mxGeometry x="558" y="97" width="40" height="40" as="geometry" />
        </mxCell>
        <mxCell id="rad2TlyHusP4lz5AHPMq-21" value="Y" style="whiteSpace=wrap;html=1;aspect=fixed;fillColor=#E6E6E6;rounded=1;fontStyle=1" parent="rad2TlyHusP4lz5AHPMq-1" vertex="1">
          <mxGeometry x="598" y="112" width="40" height="40" as="geometry" />
        </mxCell>
        <mxCell id="rad2TlyHusP4lz5AHPMq-22" value="&#39;" style="whiteSpace=wrap;html=1;aspect=fixed;fillColor=#E6E6E6;rounded=1;fontStyle=1" parent="rad2TlyHusP4lz5AHPMq-1" vertex="1">
          <mxGeometry x="638" y="141" width="40" height="40" as="geometry" />
        </mxCell>
        <mxCell id="rad2TlyHusP4lz5AHPMq-23" value="M" style="whiteSpace=wrap;html=1;aspect=fixed;fillColor=#E6E6E6;rounded=1;fontStyle=1" parent="rad2TlyHusP4lz5AHPMq-1" vertex="1">
          <mxGeometry x="478" y="160" width="40" height="40" as="geometry" />
        </mxCell>
        <mxCell id="rad2TlyHusP4lz5AHPMq-24" value="N (shift)" style="whiteSpace=wrap;html=1;aspect=fixed;fillColor=#E6E6E6;rounded=1;strokeColor=default;fontStyle=1" parent="rad2TlyHusP4lz5AHPMq-1" vertex="1">
          <mxGeometry x="518" y="152" width="40" height="40" as="geometry" />
        </mxCell>
        <mxCell id="rad2TlyHusP4lz5AHPMq-25" value="E &#xa;(gui)" style="whiteSpace=wrap;html=1;aspect=fixed;fillColor=#E6E6E6;rounded=1;strokeColor=default;fontStyle=1" parent="rad2TlyHusP4lz5AHPMq-1" vertex="1">
          <mxGeometry x="558" y="137" width="40" height="40" as="geometry" />
        </mxCell>
        <mxCell id="rad2TlyHusP4lz5AHPMq-26" value="I&#xa;(alt)" style="whiteSpace=wrap;html=1;aspect=fixed;fillColor=#E6E6E6;rounded=1;strokeColor=default;fontStyle=1" parent="rad2TlyHusP4lz5AHPMq-1" vertex="1">
          <mxGeometry x="598" y="152" width="40" height="40" as="geometry" />
        </mxCell>
        <mxCell id="rad2TlyHusP4lz5AHPMq-27" value="O&#xa;(ctrl)" style="whiteSpace=wrap;html=1;aspect=fixed;fillColor=#E6E6E6;rounded=1;strokeColor=default;spacing=2;verticalAlign=middle;horizontal=1;fontStyle=1" parent="rad2TlyHusP4lz5AHPMq-1" vertex="1">
          <mxGeometry x="638" y="181" width="40" height="40" as="geometry" />
        </mxCell>
        <mxCell id="rad2TlyHusP4lz5AHPMq-28" value="K" style="whiteSpace=wrap;html=1;aspect=fixed;fontSize=17;fontFamily=Verdana;fontStyle=1;fontColor=#000000;fillColor=#E6E6E6;rounded=1;" parent="rad2TlyHusP4lz5AHPMq-1" vertex="1">
          <mxGeometry x="478" y="200" width="40" height="40" as="geometry" />
        </mxCell>
        <mxCell id="rad2TlyHusP4lz5AHPMq-29" value="H" style="whiteSpace=wrap;html=1;aspect=fixed;fillColor=#E6E6E6;rounded=1;fontStyle=1" parent="rad2TlyHusP4lz5AHPMq-1" vertex="1">
          <mxGeometry x="518" y="192" width="40" height="40" as="geometry" />
        </mxCell>
        <mxCell id="rad2TlyHusP4lz5AHPMq-30" value="," style="whiteSpace=wrap;html=1;aspect=fixed;fillColor=#E6E6E6;rounded=1;fontStyle=1" parent="rad2TlyHusP4lz5AHPMq-1" vertex="1">
          <mxGeometry x="558" y="177" width="40" height="40" as="geometry" />
        </mxCell>
        <mxCell id="rad2TlyHusP4lz5AHPMq-31" value="." style="whiteSpace=wrap;html=1;aspect=fixed;fillColor=#E6E6E6;rounded=1;fontStyle=1" parent="rad2TlyHusP4lz5AHPMq-1" vertex="1">
          <mxGeometry x="598" y="192" width="40" height="40" as="geometry" />
        </mxCell>
        <mxCell id="rad2TlyHusP4lz5AHPMq-32" value="/" style="whiteSpace=wrap;html=1;aspect=fixed;fillColor=#E6E6E6;rounded=1;fontStyle=1" parent="rad2TlyHusP4lz5AHPMq-1" vertex="1">
          <mxGeometry x="638" y="221" width="40" height="40" as="geometry" />
        </mxCell>
        <mxCell id="rad2TlyHusP4lz5AHPMq-33" value="fnc&lt;br&gt;nav" style="whiteSpace=wrap;html=1;aspect=fixed;rotation=-15;fontSize=17;fontFamily=Verdana;fontStyle=1;fillColor=#1ba1e2;strokeColor=#006EAF;fontColor=#ffffff;rounded=1;" parent="rad2TlyHusP4lz5AHPMq-1" vertex="1">
          <mxGeometry x="498" y="246" width="40" height="40" as="geometry" />
        </mxCell>
        <mxCell id="rad2TlyHusP4lz5AHPMq-34" value="&lt;b&gt;Base&lt;/b&gt;" style="rounded=1;whiteSpace=wrap;html=1;fontFamily=Helvetica;fontSize=12;fontColor=default;fillColor=none;fontStyle=1;" parent="rad2TlyHusP4lz5AHPMq-1" vertex="1">
          <mxGeometry x="284" y="67" width="210" height="30" as="geometry" />
        </mxCell>
        <mxCell id="rad2TlyHusP4lz5AHPMq-35" value="" style="whiteSpace=wrap;html=1;aspect=fixed;fontSize=17;fontFamily=Verdana;fontStyle=1;fontColor=#000000;fillColor=#E6E6E6;rounded=1;strokeColor=default;" parent="rad2TlyHusP4lz5AHPMq-1" vertex="1">
          <mxGeometry x="98" y="452" width="39" height="40" as="geometry" />
        </mxCell>
        <mxCell id="rad2TlyHusP4lz5AHPMq-36" value="" style="whiteSpace=wrap;html=1;aspect=fixed;fontSize=17;fontFamily=Verdana;fontStyle=1;fontColor=#000000;fillColor=#E6E6E6;rounded=1;" parent="rad2TlyHusP4lz5AHPMq-1" vertex="1">
          <mxGeometry x="138" y="424" width="40" height="40" as="geometry" />
        </mxCell>
        <mxCell id="rad2TlyHusP4lz5AHPMq-37" value="" style="whiteSpace=wrap;html=1;aspect=fixed;fontSize=17;fontFamily=Verdana;fontStyle=1;fontColor=#000000;fillColor=#E6E6E6;rounded=1;" parent="rad2TlyHusP4lz5AHPMq-1" vertex="1">
          <mxGeometry x="178" y="409" width="40" height="40" as="geometry" />
        </mxCell>
        <mxCell id="rad2TlyHusP4lz5AHPMq-38" value="" style="whiteSpace=wrap;html=1;aspect=fixed;fontSize=17;fontFamily=Verdana;fontStyle=1;fontColor=#000000;fillColor=#E6E6E6;rounded=1;" parent="rad2TlyHusP4lz5AHPMq-1" vertex="1">
          <mxGeometry x="218" y="424" width="40" height="40" as="geometry" />
        </mxCell>
        <mxCell id="rad2TlyHusP4lz5AHPMq-39" value="" style="whiteSpace=wrap;html=1;aspect=fixed;fontSize=17;fontFamily=Verdana;fontStyle=1;fontColor=#000000;fillColor=#E6E6E6;rounded=1;" parent="rad2TlyHusP4lz5AHPMq-1" vertex="1">
          <mxGeometry x="258" y="432" width="40" height="40" as="geometry" />
        </mxCell>
        <mxCell id="rad2TlyHusP4lz5AHPMq-40" value="Ctrl" style="whiteSpace=wrap;html=1;aspect=fixed;fillColor=#E6E6E6;rounded=1;strokeColor=default;fontStyle=1" parent="rad2TlyHusP4lz5AHPMq-1" vertex="1">
          <mxGeometry x="98" y="492" width="40" height="40" as="geometry" />
        </mxCell>
        <mxCell id="rad2TlyHusP4lz5AHPMq-41" value="Alt" style="whiteSpace=wrap;html=1;aspect=fixed;fillColor=#E6E6E6;rounded=1;strokeColor=default;fontStyle=1" parent="rad2TlyHusP4lz5AHPMq-1" vertex="1">
          <mxGeometry x="138" y="464" width="40" height="40" as="geometry" />
        </mxCell>
        <mxCell id="rad2TlyHusP4lz5AHPMq-42" value="GUI" style="whiteSpace=wrap;html=1;aspect=fixed;fillColor=#E6E6E6;rounded=1;strokeColor=default;fontStyle=1" parent="rad2TlyHusP4lz5AHPMq-1" vertex="1">
          <mxGeometry x="178" y="449" width="40" height="40" as="geometry" />
        </mxCell>
        <mxCell id="rad2TlyHusP4lz5AHPMq-43" value="Shift" style="whiteSpace=wrap;html=1;aspect=fixed;fillColor=#E6E6E6;rounded=1;strokeColor=default;fontStyle=1" parent="rad2TlyHusP4lz5AHPMq-1" vertex="1">
          <mxGeometry x="218" y="464" width="40" height="40" as="geometry" />
        </mxCell>
        <mxCell id="rad2TlyHusP4lz5AHPMq-44" value="" style="whiteSpace=wrap;html=1;aspect=fixed;fontSize=17;fontFamily=Verdana;fontStyle=1;fontColor=#000000;fillColor=#E6E6E6;rounded=1;" parent="rad2TlyHusP4lz5AHPMq-1" vertex="1">
          <mxGeometry x="258" y="472" width="40" height="40" as="geometry" />
        </mxCell>
        <mxCell id="rad2TlyHusP4lz5AHPMq-45" value="undo" style="whiteSpace=wrap;html=1;aspect=fixed;fillColor=#E6E6E6;rounded=1;fontStyle=1" parent="rad2TlyHusP4lz5AHPMq-1" vertex="1">
          <mxGeometry x="98" y="532" width="40" height="40" as="geometry" />
        </mxCell>
        <mxCell id="rad2TlyHusP4lz5AHPMq-46" value="cut" style="whiteSpace=wrap;html=1;aspect=fixed;fillColor=#E6E6E6;rounded=1;fontStyle=1" parent="rad2TlyHusP4lz5AHPMq-1" vertex="1">
          <mxGeometry x="138" y="504" width="40" height="40" as="geometry" />
        </mxCell>
        <mxCell id="rad2TlyHusP4lz5AHPMq-47" value="copy" style="whiteSpace=wrap;html=1;aspect=fixed;fillColor=#E6E6E6;rounded=1;fontStyle=1" parent="rad2TlyHusP4lz5AHPMq-1" vertex="1">
          <mxGeometry x="178" y="489" width="40" height="40" as="geometry" />
        </mxCell>
        <mxCell id="rad2TlyHusP4lz5AHPMq-48" value="menu" style="whiteSpace=wrap;html=1;aspect=fixed;fillColor=#E6E6E6;rounded=1;fontStyle=1" parent="rad2TlyHusP4lz5AHPMq-1" vertex="1">
          <mxGeometry x="218" y="504" width="40" height="40" as="geometry" />
        </mxCell>
        <mxCell id="rad2TlyHusP4lz5AHPMq-49" value="paste" style="whiteSpace=wrap;html=1;aspect=fixed;fillColor=#E6E6E6;rounded=1;fontStyle=1" parent="rad2TlyHusP4lz5AHPMq-1" vertex="1">
          <mxGeometry x="258" y="512" width="40" height="40" as="geometry" />
        </mxCell>
        <mxCell id="rad2TlyHusP4lz5AHPMq-50" value="" style="whiteSpace=wrap;html=1;aspect=fixed;rotation=15;fontSize=17;fontFamily=Verdana;fontStyle=1;fontColor=#000000;fillColor=#E6E6E6;strokeColor=default;rounded=1;" parent="rad2TlyHusP4lz5AHPMq-1" vertex="1">
          <mxGeometry x="238" y="558" width="40" height="40" as="geometry" />
        </mxCell>
        <mxCell id="rad2TlyHusP4lz5AHPMq-51" value="" style="whiteSpace=wrap;html=1;aspect=fixed;fontSize=17;fontFamily=Verdana;fontStyle=1;fontColor=#000000;fillColor=#E6E6E6;rounded=1;" parent="rad2TlyHusP4lz5AHPMq-1" vertex="1">
          <mxGeometry x="478" y="432" width="40" height="40" as="geometry" />
        </mxCell>
        <mxCell id="rad2TlyHusP4lz5AHPMq-52" value="↑ Page" style="whiteSpace=wrap;html=1;aspect=fixed;fillColor=#E6E6E6;rounded=1;fontStyle=1" parent="rad2TlyHusP4lz5AHPMq-1" vertex="1">
          <mxGeometry x="518" y="424" width="40" height="40" as="geometry" />
        </mxCell>
        <mxCell id="rad2TlyHusP4lz5AHPMq-53" value="↑" style="whiteSpace=wrap;html=1;aspect=fixed;fillColor=#E6E6E6;rounded=1;fontStyle=1" parent="rad2TlyHusP4lz5AHPMq-1" vertex="1">
          <mxGeometry x="558" y="409" width="40" height="40" as="geometry" />
        </mxCell>
        <mxCell id="rad2TlyHusP4lz5AHPMq-54" value="" style="whiteSpace=wrap;html=1;aspect=fixed;fontSize=17;fontFamily=Verdana;fontStyle=1;fontColor=#000000;fillColor=#E6E6E6;rounded=1;" parent="rad2TlyHusP4lz5AHPMq-1" vertex="1">
          <mxGeometry x="598" y="424" width="40" height="40" as="geometry" />
        </mxCell>
        <mxCell id="rad2TlyHusP4lz5AHPMq-55" value="Insert" style="whiteSpace=wrap;html=1;aspect=fixed;fillColor=#E6E6E6;rounded=1;fontStyle=1" parent="rad2TlyHusP4lz5AHPMq-1" vertex="1">
          <mxGeometry x="638" y="451" width="40" height="40" as="geometry" />
        </mxCell>
        <mxCell id="rad2TlyHusP4lz5AHPMq-56" value="home" style="whiteSpace=wrap;html=1;aspect=fixed;fillColor=#E6E6E6;rounded=1;direction=south;fontStyle=1" parent="rad2TlyHusP4lz5AHPMq-1" vertex="1">
          <mxGeometry x="478" y="472" width="40" height="40" as="geometry" />
        </mxCell>
        <mxCell id="rad2TlyHusP4lz5AHPMq-57" value="←" style="whiteSpace=wrap;html=1;aspect=fixed;fillColor=#E6E6E6;rounded=1;strokeColor=default;fontStyle=1" parent="rad2TlyHusP4lz5AHPMq-1" vertex="1">
          <mxGeometry x="518" y="464" width="40" height="40" as="geometry" />
        </mxCell>
        <mxCell id="rad2TlyHusP4lz5AHPMq-58" value="↓" style="whiteSpace=wrap;html=1;aspect=fixed;fillColor=#E6E6E6;rounded=1;strokeColor=default;fontStyle=1" parent="rad2TlyHusP4lz5AHPMq-1" vertex="1">
          <mxGeometry x="558" y="449" width="40" height="40" as="geometry" />
        </mxCell>
        <mxCell id="rad2TlyHusP4lz5AHPMq-59" value="→" style="whiteSpace=wrap;html=1;aspect=fixed;fillColor=#E6E6E6;rounded=1;strokeColor=default;fontStyle=1" parent="rad2TlyHusP4lz5AHPMq-1" vertex="1">
          <mxGeometry x="598" y="464" width="40" height="40" as="geometry" />
        </mxCell>
        <mxCell id="rad2TlyHusP4lz5AHPMq-60" value="end" style="whiteSpace=wrap;html=1;aspect=fixed;fillColor=#E6E6E6;rounded=1;strokeColor=default;fontStyle=1" parent="rad2TlyHusP4lz5AHPMq-1" vertex="1">
          <mxGeometry x="638" y="491" width="40" height="40" as="geometry" />
        </mxCell>
        <mxCell id="rad2TlyHusP4lz5AHPMq-61" value="←tab" style="whiteSpace=wrap;html=1;aspect=fixed;fillColor=#E6E6E6;rounded=1;fontStyle=1" parent="rad2TlyHusP4lz5AHPMq-1" vertex="1">
          <mxGeometry x="478" y="512" width="40" height="40" as="geometry" />
        </mxCell>
        <mxCell id="rad2TlyHusP4lz5AHPMq-62" value="Page&amp;nbsp;&#xa;↓" style="whiteSpace=wrap;html=1;aspect=fixed;fillColor=#E6E6E6;rounded=1;fontStyle=1" parent="rad2TlyHusP4lz5AHPMq-1" vertex="1">
          <mxGeometry x="518" y="504" width="40" height="40" as="geometry" />
        </mxCell>
        <mxCell id="rad2TlyHusP4lz5AHPMq-63" value="" style="whiteSpace=wrap;html=1;aspect=fixed;fontSize=17;fontFamily=Verdana;fontStyle=1;fontColor=#000000;fillColor=#E6E6E6;rounded=1;" parent="rad2TlyHusP4lz5AHPMq-1" vertex="1">
          <mxGeometry x="558" y="489" width="40" height="40" as="geometry" />
        </mxCell>
        <mxCell id="rad2TlyHusP4lz5AHPMq-64" value="" style="whiteSpace=wrap;html=1;aspect=fixed;fontSize=17;fontFamily=Verdana;fontStyle=1;fontColor=#000000;fillColor=#E6E6E6;rounded=1;" parent="rad2TlyHusP4lz5AHPMq-1" vertex="1">
          <mxGeometry x="598" y="504" width="40" height="40" as="geometry" />
        </mxCell>
        <mxCell id="rad2TlyHusP4lz5AHPMq-65" value="tab&amp;nbsp;→" style="whiteSpace=wrap;html=1;aspect=fixed;fillColor=#E6E6E6;rounded=1;fontStyle=1" parent="rad2TlyHusP4lz5AHPMq-1" vertex="1">
          <mxGeometry x="638" y="531" width="40" height="40" as="geometry" />
        </mxCell>
        <mxCell id="rad2TlyHusP4lz5AHPMq-66" value="&lt;font color=&quot;#ffffff&quot; style=&quot;font-size: 14px;&quot;&gt;&lt;br style=&quot;font-size: 14px;&quot;&gt;&lt;/font&gt;" style="whiteSpace=wrap;html=1;aspect=fixed;rotation=-15;fontSize=17;fontFamily=Verdana;fontStyle=1;fontColor=#000000;fillColor=#E6E6E6;strokeColor=default;shadow=0;sketch=0;rounded=1;glass=0;labelBackgroundColor=none;" parent="rad2TlyHusP4lz5AHPMq-1" vertex="1">
          <mxGeometry x="498" y="558" width="40" height="40" as="geometry" />
        </mxCell>
        <mxCell id="rad2TlyHusP4lz5AHPMq-67" value="&lt;b&gt;sym&lt;/b&gt;" style="rounded=0;whiteSpace=wrap;html=1;fontFamily=Verdana;fontSize=17;fillColor=#1ba1e2;strokeColor=#006EAF;fontStyle=0;fontColor=#000000;" parent="rad2TlyHusP4lz5AHPMq-1" vertex="1">
          <mxGeometry x="284" y="707" width="210" height="30" as="geometry" />
        </mxCell>
        <mxCell id="rad2TlyHusP4lz5AHPMq-68" value="!" style="whiteSpace=wrap;html=1;aspect=fixed;fontSize=17;fontFamily=Verdana;fontStyle=1;fontColor=#000000;fillColor=#E6E6E6;rounded=1;" parent="rad2TlyHusP4lz5AHPMq-1" vertex="1">
          <mxGeometry x="98" y="779" width="40" height="40" as="geometry" />
        </mxCell>
        <mxCell id="rad2TlyHusP4lz5AHPMq-69" value="@" style="whiteSpace=wrap;html=1;aspect=fixed;fontSize=17;fontFamily=Verdana;fontStyle=1;fontColor=#000000;fillColor=#E6E6E6;rounded=1;" parent="rad2TlyHusP4lz5AHPMq-1" vertex="1">
          <mxGeometry x="138" y="752" width="40" height="40" as="geometry" />
        </mxCell>
        <mxCell id="rad2TlyHusP4lz5AHPMq-70" value="{" style="whiteSpace=wrap;html=1;aspect=fixed;fontSize=17;fontFamily=Verdana;fontStyle=1;fontColor=#000000;fillColor=#E6E6E6;rounded=1;" parent="rad2TlyHusP4lz5AHPMq-1" vertex="1">
          <mxGeometry x="178" y="737" width="40" height="40" as="geometry" />
        </mxCell>
        <mxCell id="rad2TlyHusP4lz5AHPMq-71" value="}" style="whiteSpace=wrap;html=1;aspect=fixed;fontSize=17;fontFamily=Verdana;fontStyle=1;fontColor=#000000;fillColor=#E6E6E6;rounded=1;" parent="rad2TlyHusP4lz5AHPMq-1" vertex="1">
          <mxGeometry x="218" y="752" width="40" height="40" as="geometry" />
        </mxCell>
        <mxCell id="rad2TlyHusP4lz5AHPMq-72" value="|" style="whiteSpace=wrap;html=1;aspect=fixed;fontSize=17;fontFamily=Verdana;fontStyle=1;fontColor=#000000;fillColor=#E6E6E6;rounded=1;" parent="rad2TlyHusP4lz5AHPMq-1" vertex="1">
          <mxGeometry x="258" y="760" width="40" height="40" as="geometry" />
        </mxCell>
        <mxCell id="rad2TlyHusP4lz5AHPMq-73" value="$" style="whiteSpace=wrap;html=1;aspect=fixed;fontSize=17;fontFamily=Verdana;fontStyle=1;fontColor=#000000;fillColor=#E6E6E6;rounded=1;strokeColor=default;" parent="rad2TlyHusP4lz5AHPMq-1" vertex="1">
          <mxGeometry x="138" y="792" width="40" height="40" as="geometry" />
        </mxCell>
        <mxCell id="rad2TlyHusP4lz5AHPMq-74" value="(" style="whiteSpace=wrap;html=1;aspect=fixed;fontSize=17;fontFamily=Verdana;fontStyle=1;fontColor=#000000;fillColor=#E6E6E6;rounded=1;strokeColor=default;" parent="rad2TlyHusP4lz5AHPMq-1" vertex="1">
          <mxGeometry x="178" y="777" width="40" height="40" as="geometry" />
        </mxCell>
        <mxCell id="rad2TlyHusP4lz5AHPMq-75" value=")" style="whiteSpace=wrap;html=1;aspect=fixed;fontSize=17;fontFamily=Verdana;fontStyle=1;fontColor=#000000;fillColor=#E6E6E6;rounded=1;strokeColor=default;" parent="rad2TlyHusP4lz5AHPMq-1" vertex="1">
          <mxGeometry x="218" y="792" width="40" height="40" as="geometry" />
        </mxCell>
        <mxCell id="rad2TlyHusP4lz5AHPMq-76" value="`" style="whiteSpace=wrap;html=1;aspect=fixed;fontSize=17;fontFamily=Verdana;fontStyle=1;fontColor=#000000;fillColor=#E6E6E6;rounded=1;" parent="rad2TlyHusP4lz5AHPMq-1" vertex="1">
          <mxGeometry x="258" y="800" width="40" height="40" as="geometry" />
        </mxCell>
        <mxCell id="rad2TlyHusP4lz5AHPMq-77" value="%" style="whiteSpace=wrap;html=1;aspect=fixed;fontSize=17;fontFamily=Verdana;fontStyle=1;fontColor=#000000;fillColor=#E6E6E6;rounded=1;" parent="rad2TlyHusP4lz5AHPMq-1" vertex="1">
          <mxGeometry x="98" y="859" width="40" height="40" as="geometry" />
        </mxCell>
        <mxCell id="rad2TlyHusP4lz5AHPMq-78" value="^" style="whiteSpace=wrap;html=1;aspect=fixed;fontSize=17;fontFamily=Verdana;fontStyle=1;fontColor=#000000;fillColor=#E6E6E6;rounded=1;" parent="rad2TlyHusP4lz5AHPMq-1" vertex="1">
          <mxGeometry x="138" y="832" width="40" height="40" as="geometry" />
        </mxCell>
        <mxCell id="rad2TlyHusP4lz5AHPMq-79" value="[" style="whiteSpace=wrap;html=1;aspect=fixed;fontSize=17;fontFamily=Verdana;fontStyle=1;fontColor=#000000;fillColor=#E6E6E6;rounded=1;" parent="rad2TlyHusP4lz5AHPMq-1" vertex="1">
          <mxGeometry x="178" y="817" width="40" height="40" as="geometry" />
        </mxCell>
        <mxCell id="rad2TlyHusP4lz5AHPMq-80" value="]" style="whiteSpace=wrap;html=1;aspect=fixed;fontSize=17;fontFamily=Verdana;fontStyle=1;fontColor=#000000;fillColor=#E6E6E6;rounded=1;" parent="rad2TlyHusP4lz5AHPMq-1" vertex="1">
          <mxGeometry x="218" y="832" width="40" height="40" as="geometry" />
        </mxCell>
        <mxCell id="rad2TlyHusP4lz5AHPMq-81" value="~" style="whiteSpace=wrap;html=1;aspect=fixed;fontSize=17;fontFamily=Verdana;fontStyle=1;fontColor=#000000;fillColor=#E6E6E6;rounded=1;" parent="rad2TlyHusP4lz5AHPMq-1" vertex="1">
          <mxGeometry x="258" y="840" width="40" height="40" as="geometry" />
        </mxCell>
        <mxCell id="rad2TlyHusP4lz5AHPMq-82" value="&lt;span style=&quot;color: rgb(255, 255, 255);&quot;&gt;Ext&lt;/span&gt;" style="whiteSpace=wrap;html=1;aspect=fixed;rotation=15;fontSize=17;fontFamily=Verdana;fontStyle=1;fontColor=#333333;fillColor=#60A917;strokeColor=#2D7600;rounded=1;shadow=0;glass=0;sketch=0;" parent="rad2TlyHusP4lz5AHPMq-1" vertex="1">
          <mxGeometry x="238" y="886" width="40" height="40" as="geometry" />
        </mxCell>
        <mxCell id="rad2TlyHusP4lz5AHPMq-83" value="&lt;div&gt;&amp;nbsp;&lt;/div&gt;&lt;div&gt;&lt;span style=&quot;font-family: &amp;quot;segoe ui emoji&amp;quot;, &amp;quot;apple color emoji&amp;quot;, &amp;quot;noto color emoji&amp;quot;; font-size: 14px;&quot;&gt;&lt;/span&gt;&lt;/div&gt;&lt;div&gt;&lt;span style=&quot;font-family: &amp;quot;segoe ui emoji&amp;quot;, &amp;quot;apple color emoji&amp;quot;, &amp;quot;noto color emoji&amp;quot;; font-size: 14px;&quot;&gt;&lt;/span&gt;&lt;/div&gt;" style="whiteSpace=wrap;html=1;aspect=fixed;rotation=30;fontSize=17;fontFamily=Verdana;fontStyle=0;fontColor=#ffffff;fillColor=#1ba1e2;rounded=1;strokeColor=#006EAF;" parent="rad2TlyHusP4lz5AHPMq-1" vertex="1">
          <mxGeometry x="286" y="904" width="40" height="40" as="geometry" />
        </mxCell>
        <mxCell id="rad2TlyHusP4lz5AHPMq-84" value="&amp;amp;" style="whiteSpace=wrap;html=1;aspect=fixed;fontSize=17;fontFamily=Verdana;fontStyle=1;fontColor=#000000;fillColor=#E6E6E6;rounded=1;" parent="rad2TlyHusP4lz5AHPMq-1" vertex="1">
          <mxGeometry x="478" y="760" width="40" height="40" as="geometry" />
        </mxCell>
        <mxCell id="rad2TlyHusP4lz5AHPMq-85" value="*" style="whiteSpace=wrap;html=1;aspect=fixed;fontSize=17;fontFamily=Verdana;fontStyle=1;fontColor=#000000;fillColor=#E6E6E6;rounded=1;" parent="rad2TlyHusP4lz5AHPMq-1" vertex="1">
          <mxGeometry x="518" y="752" width="40" height="40" as="geometry" />
        </mxCell>
        <mxCell id="rad2TlyHusP4lz5AHPMq-86" value="&lt;span style=&quot;font-family: &amp;quot;segoe ui emoji&amp;quot;, &amp;quot;apple color emoji&amp;quot;, &amp;quot;noto color emoji&amp;quot;; font-size: 16px;&quot;&gt;&amp;lt;&lt;/span&gt;" style="whiteSpace=wrap;html=1;aspect=fixed;fontSize=17;fontFamily=Verdana;fontStyle=1;fontColor=#000000;fillColor=#E6E6E6;rounded=1;" parent="rad2TlyHusP4lz5AHPMq-1" vertex="1">
          <mxGeometry x="558" y="737" width="40" height="40" as="geometry" />
        </mxCell>
        <mxCell id="rad2TlyHusP4lz5AHPMq-87" value="&amp;gt;" style="whiteSpace=wrap;html=1;aspect=fixed;fontSize=17;fontFamily=Verdana;fontStyle=1;fontColor=#000000;fillColor=#E6E6E6;rounded=1;" parent="rad2TlyHusP4lz5AHPMq-1" vertex="1">
          <mxGeometry x="598" y="752" width="40" height="40" as="geometry" />
        </mxCell>
        <mxCell id="rad2TlyHusP4lz5AHPMq-88" value="&#39;" style="whiteSpace=wrap;html=1;aspect=fixed;fontSize=17;fontFamily=Verdana;fontStyle=1;fontColor=#000000;fillColor=#E6E6E6;rounded=1;strokeColor=default;" parent="rad2TlyHusP4lz5AHPMq-1" vertex="1">
          <mxGeometry x="638" y="779" width="40" height="40" as="geometry" />
        </mxCell>
        <mxCell id="rad2TlyHusP4lz5AHPMq-89" value="-" style="whiteSpace=wrap;html=1;aspect=fixed;fontSize=17;fontFamily=Verdana;fontStyle=1;fontColor=#000000;fillColor=#E6E6E6;rounded=1;" parent="rad2TlyHusP4lz5AHPMq-1" vertex="1">
          <mxGeometry x="478" y="800" width="40" height="40" as="geometry" />
        </mxCell>
        <mxCell id="rad2TlyHusP4lz5AHPMq-90" value="&lt;span style=&quot;font-family: &amp;quot;segoe ui emoji&amp;quot;, &amp;quot;apple color emoji&amp;quot;, &amp;quot;noto color emoji&amp;quot;; font-size: 16px;&quot;&gt;=&lt;/span&gt;" style="whiteSpace=wrap;html=1;aspect=fixed;fontSize=17;fontFamily=Verdana;fontStyle=1;fontColor=#000000;fillColor=#E6E6E6;rounded=1;" parent="rad2TlyHusP4lz5AHPMq-1" vertex="1">
          <mxGeometry x="518" y="792" width="40" height="40" as="geometry" />
        </mxCell>
        <mxCell id="rad2TlyHusP4lz5AHPMq-91" value="&lt;span style=&quot;font-family: &amp;quot;segoe ui emoji&amp;quot;, &amp;quot;apple color emoji&amp;quot;, &amp;quot;noto color emoji&amp;quot;; font-size: 16px;&quot;&gt;+&lt;/span&gt;" style="whiteSpace=wrap;html=1;aspect=fixed;fontSize=17;fontFamily=Verdana;fontStyle=1;fontColor=#000000;fillColor=#E6E6E6;rounded=1;" parent="rad2TlyHusP4lz5AHPMq-1" vertex="1">
          <mxGeometry x="558" y="777" width="40" height="40" as="geometry" />
        </mxCell>
        <mxCell id="rad2TlyHusP4lz5AHPMq-92" value="&lt;span style=&quot;font-family: &amp;quot;segoe ui emoji&amp;quot;, &amp;quot;apple color emoji&amp;quot;, &amp;quot;noto color emoji&amp;quot;; font-size: 16px;&quot;&gt;_&lt;/span&gt;" style="whiteSpace=wrap;html=1;aspect=fixed;fontSize=17;fontFamily=Verdana;fontStyle=1;fontColor=#000000;fillColor=#E6E6E6;rounded=1;" parent="rad2TlyHusP4lz5AHPMq-1" vertex="1">
          <mxGeometry x="598" y="792" width="40" height="40" as="geometry" />
        </mxCell>
        <mxCell id="rad2TlyHusP4lz5AHPMq-93" value=";" style="whiteSpace=wrap;html=1;aspect=fixed;fontSize=17;fontFamily=Verdana;fontStyle=1;fontColor=#000000;fillColor=#E6E6E6;rounded=1;" parent="rad2TlyHusP4lz5AHPMq-1" vertex="1">
          <mxGeometry x="638" y="819" width="40" height="40" as="geometry" />
        </mxCell>
        <mxCell id="rad2TlyHusP4lz5AHPMq-94" value="\" style="whiteSpace=wrap;html=1;aspect=fixed;fontSize=17;fontFamily=Verdana;fontStyle=1;fontColor=#000000;fillColor=#E6E6E6;rounded=1;" parent="rad2TlyHusP4lz5AHPMq-1" vertex="1">
          <mxGeometry x="478" y="840" width="40" height="40" as="geometry" />
        </mxCell>
        <mxCell id="rad2TlyHusP4lz5AHPMq-95" value=":" style="whiteSpace=wrap;html=1;aspect=fixed;fontSize=17;fontFamily=Verdana;fontStyle=1;fontColor=#000000;fillColor=#E6E6E6;rounded=1;" parent="rad2TlyHusP4lz5AHPMq-1" vertex="1">
          <mxGeometry x="518" y="832" width="40" height="40" as="geometry" />
        </mxCell>
        <mxCell id="rad2TlyHusP4lz5AHPMq-96" value="," style="whiteSpace=wrap;html=1;aspect=fixed;fontSize=17;fontFamily=Verdana;fontStyle=1;fontColor=#000000;fillColor=#E6E6E6;rounded=1;" parent="rad2TlyHusP4lz5AHPMq-1" vertex="1">
          <mxGeometry x="558" y="817" width="40" height="40" as="geometry" />
        </mxCell>
        <mxCell id="rad2TlyHusP4lz5AHPMq-97" value="&lt;span style=&quot;font-size: 11px;&quot;&gt;.&lt;/span&gt;" style="whiteSpace=wrap;html=1;aspect=fixed;fontSize=17;fontFamily=Verdana;fontStyle=1;fontColor=#000000;fillColor=#E6E6E6;rounded=1;" parent="rad2TlyHusP4lz5AHPMq-1" vertex="1">
          <mxGeometry x="598" y="832" width="40" height="40" as="geometry" />
        </mxCell>
        <mxCell id="rad2TlyHusP4lz5AHPMq-98" value="/" style="whiteSpace=wrap;html=1;aspect=fixed;fontSize=17;fontFamily=Verdana;fontStyle=1;fontColor=#000000;fillColor=#E6E6E6;rounded=1;" parent="rad2TlyHusP4lz5AHPMq-1" vertex="1">
          <mxGeometry x="638" y="859" width="40" height="40" as="geometry" />
        </mxCell>
        <mxCell id="rad2TlyHusP4lz5AHPMq-99" value="" style="whiteSpace=wrap;html=1;aspect=fixed;rotation=-30;fontSize=17;fontFamily=Verdana;fontStyle=1;fontColor=#000000;fillColor=#E6E6E6;rounded=1;strokeColor=default;" parent="rad2TlyHusP4lz5AHPMq-1" vertex="1">
          <mxGeometry x="450" y="904" width="40" height="40" as="geometry" />
        </mxCell>
        <mxCell id="rad2TlyHusP4lz5AHPMq-100" value="fnc&lt;br style=&quot;font-size: 14px;&quot;&gt;nav" style="whiteSpace=wrap;html=1;aspect=fixed;rotation=-15;fontSize=14;fontFamily=Verdana;fontStyle=1;fontColor=#ffffff;fillColor=none;strokeColor=#F0F0F0;rounded=1;dashed=1;" parent="rad2TlyHusP4lz5AHPMq-1" vertex="1">
          <mxGeometry x="498" y="886" width="40" height="40" as="geometry" />
        </mxCell>
        <mxCell id="rad2TlyHusP4lz5AHPMq-101" value="nav" style="rounded=0;whiteSpace=wrap;html=1;fontFamily=Verdana;fontSize=17;fontStyle=1;fillColor=#a20025;strokeColor=#6F0000;fontColor=#ffffff;" parent="rad2TlyHusP4lz5AHPMq-1" vertex="1">
          <mxGeometry x="284" y="379" width="210" height="30" as="geometry" />
        </mxCell>
        <mxCell id="rad2TlyHusP4lz5AHPMq-102" style="edgeStyle=orthogonalEdgeStyle;rounded=1;orthogonalLoop=1;jettySize=auto;html=1;exitX=0.5;exitY=1;exitDx=0;exitDy=0;fontFamily=Verdana;fontSize=14;fontColor=#3399FF;strokeColor=#FF8000;" parent="rad2TlyHusP4lz5AHPMq-1" edge="1">
          <mxGeometry relative="1" as="geometry">
            <mxPoint x="158.49999999999977" y="977" as="sourcePoint" />
            <mxPoint x="158.49999999999977" y="977" as="targetPoint" />
          </mxGeometry>
        </mxCell>
        <mxCell id="rad2TlyHusP4lz5AHPMq-105" value="L" style="whiteSpace=wrap;html=1;aspect=fixed;fillColor=#E6E6E6;rounded=1;fontStyle=1" parent="rad2TlyHusP4lz5AHPMq-1" vertex="1">
          <mxGeometry x="518" y="112" width="40" height="40" as="geometry" />
        </mxCell>
        <mxCell id="rad2TlyHusP4lz5AHPMq-106" value="F1" style="whiteSpace=wrap;html=1;aspect=fixed;fillColor=#E6E6E6;rounded=1;fontStyle=1" parent="rad2TlyHusP4lz5AHPMq-1" vertex="1">
          <mxGeometry x="97.5" y="1104" width="40" height="40" as="geometry" />
        </mxCell>
        <mxCell id="rad2TlyHusP4lz5AHPMq-107" value="F2" style="whiteSpace=wrap;html=1;aspect=fixed;fillColor=#E6E6E6;rounded=1;fontStyle=1" parent="rad2TlyHusP4lz5AHPMq-1" vertex="1">
          <mxGeometry x="137.5" y="1077" width="40" height="40" as="geometry" />
        </mxCell>
        <mxCell id="rad2TlyHusP4lz5AHPMq-108" value="F3" style="whiteSpace=wrap;html=1;aspect=fixed;fillColor=#E6E6E6;rounded=1;fontStyle=1" parent="rad2TlyHusP4lz5AHPMq-1" vertex="1">
          <mxGeometry x="178" y="1062" width="40" height="40" as="geometry" />
        </mxCell>
        <mxCell id="rad2TlyHusP4lz5AHPMq-109" value="F4" style="whiteSpace=wrap;html=1;aspect=fixed;fillColor=#E6E6E6;rounded=1;fontStyle=1" parent="rad2TlyHusP4lz5AHPMq-1" vertex="1">
          <mxGeometry x="218" y="1077" width="40" height="40" as="geometry" />
        </mxCell>
        <mxCell id="rad2TlyHusP4lz5AHPMq-110" value="" style="whiteSpace=wrap;html=1;aspect=fixed;fillColor=#E6E6E6;rounded=1;fontStyle=1" parent="rad2TlyHusP4lz5AHPMq-1" vertex="1">
          <mxGeometry x="258" y="1085" width="40" height="40" as="geometry" />
        </mxCell>
        <mxCell id="rad2TlyHusP4lz5AHPMq-111" value="F8" style="whiteSpace=wrap;html=1;aspect=fixed;fillColor=#E6E6E6;rounded=1;strokeColor=default;fontStyle=1" parent="rad2TlyHusP4lz5AHPMq-1" vertex="1">
          <mxGeometry x="218" y="1117" width="40" height="40" as="geometry" />
        </mxCell>
        <mxCell id="rad2TlyHusP4lz5AHPMq-112" value="" style="whiteSpace=wrap;html=1;aspect=fixed;fillColor=#E6E6E6;rounded=1;fontStyle=1" parent="rad2TlyHusP4lz5AHPMq-1" vertex="1">
          <mxGeometry x="258" y="1125" width="40" height="40" as="geometry" />
        </mxCell>
        <mxCell id="rad2TlyHusP4lz5AHPMq-113" value="F10" style="whiteSpace=wrap;html=1;aspect=fixed;fillColor=#E6E6E6;rounded=1;fontStyle=1" parent="rad2TlyHusP4lz5AHPMq-1" vertex="1">
          <mxGeometry x="138" y="1157" width="40" height="40" as="geometry" />
        </mxCell>
        <mxCell id="rad2TlyHusP4lz5AHPMq-114" value="F11" style="whiteSpace=wrap;html=1;aspect=fixed;fillColor=#E6E6E6;rounded=1;fontStyle=1" parent="rad2TlyHusP4lz5AHPMq-1" vertex="1">
          <mxGeometry x="178" y="1142" width="40" height="40" as="geometry" />
        </mxCell>
        <mxCell id="rad2TlyHusP4lz5AHPMq-115" value="F12" style="whiteSpace=wrap;html=1;aspect=fixed;fillColor=#E6E6E6;rounded=1;fontStyle=1" parent="rad2TlyHusP4lz5AHPMq-1" vertex="1">
          <mxGeometry x="218" y="1157" width="40" height="40" as="geometry" />
        </mxCell>
        <mxCell id="rad2TlyHusP4lz5AHPMq-116" value="" style="whiteSpace=wrap;html=1;aspect=fixed;fillColor=#E6E6E6;rounded=1;fontStyle=1" parent="rad2TlyHusP4lz5AHPMq-1" vertex="1">
          <mxGeometry x="258" y="1165" width="40" height="40" as="geometry" />
        </mxCell>
        <mxCell id="rad2TlyHusP4lz5AHPMq-117" value="" style="whiteSpace=wrap;html=1;aspect=fixed;rotation=15;fillColor=#6A00FF;rounded=1;strokeColor=#3700CC;fontStyle=1" parent="rad2TlyHusP4lz5AHPMq-1" vertex="1">
          <mxGeometry x="238" y="1211" width="40" height="40" as="geometry" />
        </mxCell>
        <mxCell id="rad2TlyHusP4lz5AHPMq-118" value="" style="whiteSpace=wrap;html=1;aspect=fixed;rotation=30;fillColor=#E6E6E6;rounded=1;strokeColor=default;fontStyle=1" parent="rad2TlyHusP4lz5AHPMq-1" vertex="1">
          <mxGeometry x="286" y="1229" width="40" height="40" as="geometry" />
        </mxCell>
        <mxCell id="rad2TlyHusP4lz5AHPMq-119" value="" style="whiteSpace=wrap;html=1;aspect=fixed;fillColor=#E6E6E6;rounded=1;fontStyle=1" parent="rad2TlyHusP4lz5AHPMq-1" vertex="1">
          <mxGeometry x="478" y="1085" width="40" height="40" as="geometry" />
        </mxCell>
        <mxCell id="rad2TlyHusP4lz5AHPMq-120" value="7" style="whiteSpace=wrap;html=1;aspect=fixed;fillColor=#E6E6E6;rounded=1;fontStyle=1" parent="rad2TlyHusP4lz5AHPMq-1" vertex="1">
          <mxGeometry x="518" y="1077" width="40" height="40" as="geometry" />
        </mxCell>
        <mxCell id="rad2TlyHusP4lz5AHPMq-121" value="8" style="whiteSpace=wrap;html=1;aspect=fixed;fillColor=#E6E6E6;rounded=1;fontStyle=1" parent="rad2TlyHusP4lz5AHPMq-1" vertex="1">
          <mxGeometry x="558" y="1062" width="40" height="40" as="geometry" />
        </mxCell>
        <mxCell id="rad2TlyHusP4lz5AHPMq-122" value="9" style="whiteSpace=wrap;html=1;aspect=fixed;fillColor=#E6E6E6;rounded=1;fontStyle=1" parent="rad2TlyHusP4lz5AHPMq-1" vertex="1">
          <mxGeometry x="598" y="1077" width="40" height="40" as="geometry" />
        </mxCell>
        <mxCell id="rad2TlyHusP4lz5AHPMq-123" value="0" style="whiteSpace=wrap;html=1;aspect=fixed;fillColor=#E6E6E6;rounded=1;fontStyle=1" parent="rad2TlyHusP4lz5AHPMq-1" vertex="1">
          <mxGeometry x="638" y="1104" width="40" height="40" as="geometry" />
        </mxCell>
        <mxCell id="rad2TlyHusP4lz5AHPMq-124" value="" style="whiteSpace=wrap;html=1;aspect=fixed;fillColor=#E6E6E6;rounded=1;fontStyle=1" parent="rad2TlyHusP4lz5AHPMq-1" vertex="1">
          <mxGeometry x="478" y="1125" width="40" height="40" as="geometry" />
        </mxCell>
        <mxCell id="rad2TlyHusP4lz5AHPMq-125" value="4" style="whiteSpace=wrap;html=1;aspect=fixed;fillColor=#E6E6E6;rounded=1;strokeColor=default;fontStyle=1" parent="rad2TlyHusP4lz5AHPMq-1" vertex="1">
          <mxGeometry x="518" y="1117" width="40" height="40" as="geometry" />
        </mxCell>
        <mxCell id="rad2TlyHusP4lz5AHPMq-126" value="5" style="whiteSpace=wrap;html=1;aspect=fixed;fillColor=#E6E6E6;rounded=1;strokeColor=default;fontStyle=1" parent="rad2TlyHusP4lz5AHPMq-1" vertex="1">
          <mxGeometry x="558" y="1102" width="40" height="40" as="geometry" />
        </mxCell>
        <mxCell id="rad2TlyHusP4lz5AHPMq-127" value="6" style="whiteSpace=wrap;html=1;aspect=fixed;fillColor=#E6E6E6;rounded=1;strokeColor=default;fontStyle=1" parent="rad2TlyHusP4lz5AHPMq-1" vertex="1">
          <mxGeometry x="597.5" y="1117" width="40" height="40" as="geometry" />
        </mxCell>
        <mxCell id="rad2TlyHusP4lz5AHPMq-128" value="" style="whiteSpace=wrap;html=1;aspect=fixed;fillColor=#E6E6E6;rounded=1;strokeColor=default;fontStyle=1" parent="rad2TlyHusP4lz5AHPMq-1" vertex="1">
          <mxGeometry x="638" y="1144" width="40" height="40" as="geometry" />
        </mxCell>
        <mxCell id="rad2TlyHusP4lz5AHPMq-129" value="" style="whiteSpace=wrap;html=1;aspect=fixed;fillColor=#E6E6E6;rounded=1;fontStyle=1" parent="rad2TlyHusP4lz5AHPMq-1" vertex="1">
          <mxGeometry x="477.5" y="1165" width="40" height="40" as="geometry" />
        </mxCell>
        <mxCell id="rad2TlyHusP4lz5AHPMq-130" value="1" style="whiteSpace=wrap;html=1;aspect=fixed;fillColor=#E6E6E6;rounded=1;fontStyle=1" parent="rad2TlyHusP4lz5AHPMq-1" vertex="1">
          <mxGeometry x="518" y="1157" width="40" height="40" as="geometry" />
        </mxCell>
        <mxCell id="rad2TlyHusP4lz5AHPMq-131" value="2" style="whiteSpace=wrap;html=1;aspect=fixed;fillColor=#E6E6E6;rounded=1;fontStyle=1" parent="rad2TlyHusP4lz5AHPMq-1" vertex="1">
          <mxGeometry x="558" y="1142" width="40" height="40" as="geometry" />
        </mxCell>
        <mxCell id="rad2TlyHusP4lz5AHPMq-132" value="3" style="whiteSpace=wrap;html=1;aspect=fixed;fillColor=#E6E6E6;rounded=1;fontStyle=1" parent="rad2TlyHusP4lz5AHPMq-1" vertex="1">
          <mxGeometry x="598" y="1157" width="40" height="40" as="geometry" />
        </mxCell>
        <mxCell id="rad2TlyHusP4lz5AHPMq-133" value="" style="whiteSpace=wrap;html=1;aspect=fixed;fillColor=#E6E6E6;rounded=1;fontStyle=1" parent="rad2TlyHusP4lz5AHPMq-1" vertex="1">
          <mxGeometry x="638" y="1184" width="40" height="40" as="geometry" />
        </mxCell>
        <mxCell id="rad2TlyHusP4lz5AHPMq-134" value="" style="whiteSpace=wrap;html=1;aspect=fixed;rotation=-30;fillColor=#E6E6E6;strokeColor=default;rounded=1;shadow=0;glass=0;sketch=0;fontStyle=1" parent="rad2TlyHusP4lz5AHPMq-1" vertex="1">
          <mxGeometry x="450" y="1229" width="40" height="40" as="geometry" />
        </mxCell>
        <mxCell id="rad2TlyHusP4lz5AHPMq-135" value="&#xa;" style="whiteSpace=wrap;html=1;aspect=fixed;rotation=-15;fillColor=#E6E6E6;strokeColor=default;rounded=1;shadow=0;glass=0;sketch=0;fontStyle=1" parent="rad2TlyHusP4lz5AHPMq-1" vertex="1">
          <mxGeometry x="498" y="1211" width="40" height="40" as="geometry" />
        </mxCell>
        <mxCell id="rad2TlyHusP4lz5AHPMq-136" value="num" style="rounded=0;whiteSpace=wrap;html=1;fontFamily=Verdana;fontSize=17;fontStyle=1;fillColor=#6A00FF;strokeColor=#3700CC;fontColor=#ffffff;" parent="rad2TlyHusP4lz5AHPMq-1" vertex="1">
          <mxGeometry x="287.5" y="1032" width="210" height="30" as="geometry" />
        </mxCell>
        <mxCell id="rad2TlyHusP4lz5AHPMq-137" value="#" style="whiteSpace=wrap;html=1;aspect=fixed;fontSize=17;fontFamily=Verdana;fontStyle=1;fontColor=#000000;fillColor=#E6E6E6;rounded=1;strokeColor=default;" parent="rad2TlyHusP4lz5AHPMq-1" vertex="1">
          <mxGeometry x="98" y="819" width="40" height="40" as="geometry" />
        </mxCell>
        <mxCell id="rad2TlyHusP4lz5AHPMq-140" value="Sym" style="whiteSpace=wrap;html=1;aspect=fixed;rotation=15;fontSize=17;fontFamily=Verdana;fontStyle=1;fillColor=#a20025;strokeColor=#6F0000;fontColor=#ffffff;rounded=1;" parent="rad2TlyHusP4lz5AHPMq-1" vertex="1">
          <mxGeometry x="238" y="246" width="40" height="40" as="geometry" />
        </mxCell>
        <mxCell id="rad2TlyHusP4lz5AHPMq-141" value="Spc" style="whiteSpace=wrap;html=1;aspect=fixed;rotation=30;fontSize=17;fontFamily=Verdana;fontStyle=1;fontColor=#AFB9C7;fillColor=#383E47;rounded=1;align=center;verticalAlign=middle;" parent="rad2TlyHusP4lz5AHPMq-1" vertex="1">
          <mxGeometry x="286" y="264" width="40" height="40" as="geometry" />
        </mxCell>
        <mxCell id="rad2TlyHusP4lz5AHPMq-142" value="fnc&lt;br&gt;nav" style="whiteSpace=wrap;html=1;aspect=fixed;rotation=-15;fontSize=17;fontFamily=Verdana;fontStyle=1;fillColor=#1ba1e2;strokeColor=#006EAF;fontColor=#ffffff;rounded=1;" parent="rad2TlyHusP4lz5AHPMq-1" vertex="1">
          <mxGeometry x="498" y="246" width="40" height="40" as="geometry" />
        </mxCell>
        <mxCell id="rad2TlyHusP4lz5AHPMq-143" value="Sym" style="whiteSpace=wrap;html=1;aspect=fixed;rotation=15;fontSize=17;fontFamily=Verdana;fontStyle=1;fillColor=#a20025;strokeColor=#6F0000;fontColor=#ffffff;rounded=1;" parent="rad2TlyHusP4lz5AHPMq-1" vertex="1">
          <mxGeometry x="238" y="246" width="40" height="40" as="geometry" />
        </mxCell>
        <mxCell id="rad2TlyHusP4lz5AHPMq-144" value="Spc" style="whiteSpace=wrap;html=1;aspect=fixed;rotation=30;fontSize=17;fontFamily=Verdana;fontStyle=1;fontColor=#AFB9C7;fillColor=#383E47;rounded=1;align=center;verticalAlign=middle;" parent="rad2TlyHusP4lz5AHPMq-1" vertex="1">
          <mxGeometry x="286" y="264" width="40" height="40" as="geometry" />
        </mxCell>
        <mxCell id="rad2TlyHusP4lz5AHPMq-145" value="fnc&lt;br&gt;nav" style="whiteSpace=wrap;html=1;aspect=fixed;rotation=-15;fontSize=17;fontFamily=Verdana;fontStyle=1;fillColor=#1ba1e2;strokeColor=#006EAF;fontColor=#ffffff;rounded=1;" parent="rad2TlyHusP4lz5AHPMq-1" vertex="1">
          <mxGeometry x="498" y="246" width="40" height="40" as="geometry" />
        </mxCell>
        <mxCell id="rad2TlyHusP4lz5AHPMq-146" value="Sym" style="whiteSpace=wrap;html=1;aspect=fixed;rotation=15;fontSize=17;fontFamily=Verdana;fontStyle=1;fillColor=#a20025;strokeColor=#6F0000;fontColor=#ffffff;rounded=1;" parent="rad2TlyHusP4lz5AHPMq-1" vertex="1">
          <mxGeometry x="238" y="246" width="40" height="40" as="geometry" />
        </mxCell>
        <mxCell id="rad2TlyHusP4lz5AHPMq-147" value="Spc" style="whiteSpace=wrap;html=1;aspect=fixed;rotation=30;fontSize=17;fontFamily=Verdana;fontStyle=1;fontColor=#AFB9C7;fillColor=#383E47;rounded=1;align=center;verticalAlign=middle;" parent="rad2TlyHusP4lz5AHPMq-1" vertex="1">
          <mxGeometry x="286" y="264" width="40" height="40" as="geometry" />
        </mxCell>
        <mxCell id="rad2TlyHusP4lz5AHPMq-148" value="fnc&lt;br&gt;nav" style="whiteSpace=wrap;html=1;aspect=fixed;rotation=-15;fontSize=17;fontFamily=Verdana;fontStyle=1;fillColor=#1ba1e2;strokeColor=#006EAF;fontColor=#ffffff;rounded=1;" parent="rad2TlyHusP4lz5AHPMq-1" vertex="1">
          <mxGeometry x="498" y="246" width="40" height="40" as="geometry" />
        </mxCell>
        <mxCell id="rad2TlyHusP4lz5AHPMq-149" value="Sym" style="whiteSpace=wrap;html=1;aspect=fixed;rotation=15;fontSize=17;fontFamily=Verdana;fontStyle=1;fillColor=#a20025;strokeColor=#6F0000;fontColor=#ffffff;rounded=1;" parent="rad2TlyHusP4lz5AHPMq-1" vertex="1">
          <mxGeometry x="238" y="246" width="40" height="40" as="geometry" />
        </mxCell>
        <mxCell id="rad2TlyHusP4lz5AHPMq-150" value="Spc" style="whiteSpace=wrap;html=1;aspect=fixed;rotation=30;fontSize=17;fontFamily=Verdana;fontStyle=1;fontColor=#AFB9C7;fillColor=#383E47;rounded=1;align=center;verticalAlign=middle;" parent="rad2TlyHusP4lz5AHPMq-1" vertex="1">
          <mxGeometry x="286" y="264" width="40" height="40" as="geometry" />
        </mxCell>
        <mxCell id="rad2TlyHusP4lz5AHPMq-151" value="fnc&lt;br&gt;nav" style="whiteSpace=wrap;html=1;aspect=fixed;rotation=-15;fontSize=17;fontFamily=Verdana;fontStyle=1;fillColor=#1ba1e2;strokeColor=#006EAF;fontColor=#ffffff;rounded=1;" parent="rad2TlyHusP4lz5AHPMq-1" vertex="1">
          <mxGeometry x="498" y="246" width="40" height="40" as="geometry" />
        </mxCell>
        <mxCell id="rad2TlyHusP4lz5AHPMq-152" value="Sym" style="whiteSpace=wrap;html=1;aspect=fixed;rotation=15;fontSize=17;fontFamily=Verdana;fontStyle=1;fillColor=#a20025;strokeColor=#6F0000;fontColor=#ffffff;rounded=1;" parent="rad2TlyHusP4lz5AHPMq-1" vertex="1">
          <mxGeometry x="238" y="246" width="40" height="40" as="geometry" />
        </mxCell>
        <mxCell id="rad2TlyHusP4lz5AHPMq-153" value="Spc" style="whiteSpace=wrap;html=1;aspect=fixed;rotation=30;fontSize=17;fontFamily=Verdana;fontStyle=1;fontColor=#AFB9C7;fillColor=#383E47;rounded=1;align=center;verticalAlign=middle;" parent="rad2TlyHusP4lz5AHPMq-1" vertex="1">
          <mxGeometry x="286" y="264" width="40" height="40" as="geometry" />
        </mxCell>
        <mxCell id="rad2TlyHusP4lz5AHPMq-154" value="fnc&lt;br&gt;nav" style="whiteSpace=wrap;html=1;aspect=fixed;rotation=-15;fontSize=17;fontFamily=Verdana;fontStyle=1;fillColor=#1ba1e2;strokeColor=#006EAF;fontColor=#ffffff;rounded=1;" parent="rad2TlyHusP4lz5AHPMq-1" vertex="1">
          <mxGeometry x="498" y="246" width="40" height="40" as="geometry" />
        </mxCell>
        <mxCell id="rad2TlyHusP4lz5AHPMq-155" value="&lt;span style=&quot;color: rgb(255, 255, 255);&quot;&gt;Ext&lt;/span&gt;" style="whiteSpace=wrap;html=1;aspect=fixed;rotation=15;fontSize=17;fontFamily=Verdana;fontStyle=1;fontColor=#333333;fillColor=#60A917;strokeColor=#2D7600;rounded=1;shadow=0;glass=0;sketch=0;" parent="rad2TlyHusP4lz5AHPMq-1" vertex="1">
          <mxGeometry x="238" y="886" width="40" height="40" as="geometry" />
        </mxCell>
        <mxCell id="rad2TlyHusP4lz5AHPMq-156" value="num&lt;div&gt;&lt;/div&gt;" style="whiteSpace=wrap;html=1;aspect=fixed;rotation=15;fontSize=14;fontFamily=Verdana;fontStyle=1;fillColor=#6A00FF;strokeColor=#3700CC;fontColor=#ffffff;rounded=1;" parent="rad2TlyHusP4lz5AHPMq-1" vertex="1">
          <mxGeometry x="238" y="246" width="40" height="40" as="geometry" />
        </mxCell>
        <mxCell id="rad2TlyHusP4lz5AHPMq-157" value="&lt;font&gt;Esc&lt;br&gt;(sym)&lt;/font&gt;" style="whiteSpace=wrap;html=1;aspect=fixed;rotation=30;fontSize=14;fontFamily=Verdana;fontStyle=1;fontColor=#000000;fillColor=#1BA1E2;rounded=1;align=center;verticalAlign=middle;strokeColor=#AFB9C7;" parent="rad2TlyHusP4lz5AHPMq-1" vertex="1">
          <mxGeometry x="286" y="264" width="40" height="40" as="geometry" />
        </mxCell>
        <mxCell id="rad2TlyHusP4lz5AHPMq-159" value="Ent&lt;br&gt;&lt;div&gt;(mse)&lt;/div&gt;" style="whiteSpace=wrap;html=1;aspect=fixed;rotation=-30;fontSize=14;fontFamily=Verdana;fontStyle=1;fontColor=#000000;fillColor=#FF9933;rounded=1;strokeColor=#6F0000;" parent="rad2TlyHusP4lz5AHPMq-1" vertex="1">
          <mxGeometry x="450" y="264" width="40" height="40" as="geometry" />
        </mxCell>
        <mxCell id="rad2TlyHusP4lz5AHPMq-161" value="win" style="whiteSpace=wrap;html=1;aspect=fixed;rotation=-15;fontSize=14;fontFamily=Verdana;fontStyle=1;fillColor=#97D077;strokeColor=#006EAF;fontColor=#000000;rounded=1;" parent="rad2TlyHusP4lz5AHPMq-1" vertex="1">
          <mxGeometry x="498" y="246" width="40" height="40" as="geometry" />
        </mxCell>
        <mxCell id="rad2TlyHusP4lz5AHPMq-162" value="" style="whiteSpace=wrap;html=1;aspect=fixed;rotation=30;fontSize=17;fontFamily=Verdana;fontStyle=1;fontColor=#000000;fillColor=#E6E6E6;strokeColor=default;rounded=1;" parent="rad2TlyHusP4lz5AHPMq-1" vertex="1">
          <mxGeometry x="286" y="576" width="40" height="40" as="geometry" />
        </mxCell>
        <mxCell id="rad2TlyHusP4lz5AHPMq-163" value="&lt;span style=&quot;font-size: 14px;&quot;&gt;&lt;br style=&quot;font-size: 14px;&quot;&gt;&lt;/span&gt;" style="whiteSpace=wrap;html=1;aspect=fixed;rotation=-30;fontSize=17;fontFamily=Verdana;fontStyle=1;fontColor=#000000;fillColor=#E6E6E6;rounded=1;strokeColor=default;gradientColor=none;" parent="rad2TlyHusP4lz5AHPMq-1" vertex="1">
          <mxGeometry x="449" y="576" width="40" height="40" as="geometry" />
        </mxCell>
        <mxCell id="rad2TlyHusP4lz5AHPMq-164" value="" style="whiteSpace=wrap;html=1;aspect=fixed;rotation=15;fontSize=17;fontFamily=Verdana;fontStyle=1;fontColor=#000000;fillColor=#E6E6E6;strokeColor=default;rounded=1;shadow=0;glass=0;sketch=0;" parent="rad2TlyHusP4lz5AHPMq-1" vertex="1">
          <mxGeometry x="238" y="886" width="40" height="40" as="geometry" />
        </mxCell>
        <mxCell id="rad2TlyHusP4lz5AHPMq-168" value="&lt;b&gt;Mouse&lt;/b&gt;" style="rounded=0;whiteSpace=wrap;html=1;fontFamily=Verdana;fontSize=17;fillColor=#FF9933;strokeColor=#666600;fontStyle=0;fontColor=#000000;" parent="rad2TlyHusP4lz5AHPMq-1" vertex="1">
          <mxGeometry x="288" y="1371" width="210" height="30" as="geometry" />
        </mxCell>
        <mxCell id="rad2TlyHusP4lz5AHPMq-169" value="↑" style="whiteSpace=wrap;html=1;aspect=fixed;fillColor=#E6E6E6;rounded=1;strokeColor=default;fontStyle=1" parent="rad2TlyHusP4lz5AHPMq-1" vertex="1">
          <mxGeometry x="178" y="1402" width="40" height="40" as="geometry" />
        </mxCell>
        <mxCell id="rad2TlyHusP4lz5AHPMq-170" value="" style="whiteSpace=wrap;html=1;aspect=fixed;fillColor=#E6E6E6;rounded=1;strokeColor=default;fontStyle=1" parent="rad2TlyHusP4lz5AHPMq-1" vertex="1">
          <mxGeometry x="217.5" y="1417" width="40" height="40" as="geometry" />
        </mxCell>
        <mxCell id="rad2TlyHusP4lz5AHPMq-171" value="" style="whiteSpace=wrap;html=1;aspect=fixed;fillColor=#E6E6E6;rounded=1;strokeColor=default;fontStyle=1" parent="rad2TlyHusP4lz5AHPMq-1" vertex="1">
          <mxGeometry x="257.5" y="1425" width="40" height="40" as="geometry" />
        </mxCell>
        <mxCell id="rad2TlyHusP4lz5AHPMq-172" value="→" style="whiteSpace=wrap;html=1;aspect=fixed;fillColor=#E6E6E6;rounded=1;fontStyle=1" parent="rad2TlyHusP4lz5AHPMq-1" vertex="1">
          <mxGeometry x="216.5" y="1457" width="40" height="40" as="geometry" />
        </mxCell>
        <mxCell id="rad2TlyHusP4lz5AHPMq-173" value="" style="whiteSpace=wrap;html=1;aspect=fixed;fillColor=#E6E6E6;rounded=1;fontStyle=1" parent="rad2TlyHusP4lz5AHPMq-1" vertex="1">
          <mxGeometry x="257.5" y="1465" width="40" height="40" as="geometry" />
        </mxCell>
        <mxCell id="rad2TlyHusP4lz5AHPMq-174" value="" style="whiteSpace=wrap;html=1;aspect=fixed;fillColor=#E6E6E6;rounded=1;fontStyle=1" parent="rad2TlyHusP4lz5AHPMq-1" vertex="1">
          <mxGeometry x="137.5" y="1497" width="40" height="40" as="geometry" />
        </mxCell>
        <mxCell id="rad2TlyHusP4lz5AHPMq-175" value="" style="whiteSpace=wrap;html=1;aspect=fixed;fillColor=#E6E6E6;rounded=1;fontStyle=1" parent="rad2TlyHusP4lz5AHPMq-1" vertex="1">
          <mxGeometry x="177.5" y="1482" width="40" height="40" as="geometry" />
        </mxCell>
        <mxCell id="rad2TlyHusP4lz5AHPMq-176" value="" style="whiteSpace=wrap;html=1;aspect=fixed;fillColor=#E6E6E6;rounded=1;fontStyle=1" parent="rad2TlyHusP4lz5AHPMq-1" vertex="1">
          <mxGeometry x="218" y="1497" width="40" height="40" as="geometry" />
        </mxCell>
        <mxCell id="rad2TlyHusP4lz5AHPMq-177" value="" style="whiteSpace=wrap;html=1;aspect=fixed;fillColor=#E6E6E6;rounded=1;fontStyle=1" parent="rad2TlyHusP4lz5AHPMq-1" vertex="1">
          <mxGeometry x="258" y="1505" width="40" height="40" as="geometry" />
        </mxCell>
        <mxCell id="rad2TlyHusP4lz5AHPMq-178" value="Ext" style="whiteSpace=wrap;html=1;aspect=fixed;rotation=15;fillColor=#E6E6E6;strokeColor=default;rounded=1;shadow=0;glass=0;sketch=0;fontStyle=1" parent="rad2TlyHusP4lz5AHPMq-1" vertex="1">
          <mxGeometry x="237.5" y="1551" width="40" height="40" as="geometry" />
        </mxCell>
        <mxCell id="rad2TlyHusP4lz5AHPMq-179" value="ctrl" style="whiteSpace=wrap;html=1;aspect=fixed;rotation=30;fillColor=#E6E6E6;rounded=1;strokeColor=default;fontStyle=1" parent="rad2TlyHusP4lz5AHPMq-1" vertex="1">
          <mxGeometry x="285.5" y="1569" width="40" height="40" as="geometry" />
        </mxCell>
        <mxCell id="rad2TlyHusP4lz5AHPMq-180" value="&amp;nbsp;pointer speed" style="whiteSpace=wrap;html=1;aspect=fixed;fillColor=#E6E6E6;rounded=1;fontStyle=1" parent="rad2TlyHusP4lz5AHPMq-1" vertex="1">
          <mxGeometry x="477.5" y="1425" width="40" height="40" as="geometry" />
        </mxCell>
        <mxCell id="rad2TlyHusP4lz5AHPMq-181" value="scroll up" style="whiteSpace=wrap;html=1;aspect=fixed;fillColor=#E6E6E6;rounded=1;fontStyle=1" parent="rad2TlyHusP4lz5AHPMq-1" vertex="1">
          <mxGeometry x="517.5" y="1417" width="40" height="40" as="geometry" />
        </mxCell>
        <mxCell id="rad2TlyHusP4lz5AHPMq-182" value="" style="whiteSpace=wrap;html=1;aspect=fixed;fillColor=#E6E6E6;rounded=1;fontStyle=1" parent="rad2TlyHusP4lz5AHPMq-1" vertex="1">
          <mxGeometry x="557.5" y="1402" width="40" height="40" as="geometry" />
        </mxCell>
        <mxCell id="rad2TlyHusP4lz5AHPMq-183" value="" style="whiteSpace=wrap;html=1;aspect=fixed;fillColor=#E6E6E6;rounded=1;fontStyle=1" parent="rad2TlyHusP4lz5AHPMq-1" vertex="1">
          <mxGeometry x="597.5" y="1417" width="40" height="40" as="geometry" />
        </mxCell>
        <mxCell id="rad2TlyHusP4lz5AHPMq-184" value="" style="whiteSpace=wrap;html=1;aspect=fixed;fillColor=#E6E6E6;rounded=1;fontStyle=1" parent="rad2TlyHusP4lz5AHPMq-1" vertex="1">
          <mxGeometry x="637.5" y="1443" width="40" height="40" as="geometry" />
        </mxCell>
        <mxCell id="rad2TlyHusP4lz5AHPMq-185" value="scroll left" style="whiteSpace=wrap;html=1;aspect=fixed;fillColor=#E6E6E6;rounded=1;fontStyle=1" parent="rad2TlyHusP4lz5AHPMq-1" vertex="1">
          <mxGeometry x="477.5" y="1465" width="40" height="40" as="geometry" />
        </mxCell>
        <mxCell id="rad2TlyHusP4lz5AHPMq-186" value="left button" style="whiteSpace=wrap;html=1;aspect=fixed;fillColor=#E6E6E6;rounded=1;fontStyle=1" parent="rad2TlyHusP4lz5AHPMq-1" vertex="1">
          <mxGeometry x="517.5" y="1457" width="40" height="40" as="geometry" />
        </mxCell>
        <mxCell id="rad2TlyHusP4lz5AHPMq-187" value="mid button" style="whiteSpace=wrap;html=1;aspect=fixed;fillColor=#E6E6E6;rounded=1;fontStyle=1" parent="rad2TlyHusP4lz5AHPMq-1" vertex="1">
          <mxGeometry x="557.5" y="1442" width="40" height="40" as="geometry" />
        </mxCell>
        <mxCell id="rad2TlyHusP4lz5AHPMq-188" value="right button" style="whiteSpace=wrap;html=1;aspect=fixed;fillColor=#E6E6E6;rounded=1;fontStyle=1" parent="rad2TlyHusP4lz5AHPMq-1" vertex="1">
          <mxGeometry x="597.5" y="1457" width="40" height="40" as="geometry" />
        </mxCell>
        <mxCell id="rad2TlyHusP4lz5AHPMq-189" value="scroll right" style="whiteSpace=wrap;html=1;aspect=fixed;fillColor=#E6E6E6;rounded=1;fontStyle=1" parent="rad2TlyHusP4lz5AHPMq-1" vertex="1">
          <mxGeometry x="637.5" y="1483" width="40" height="40" as="geometry" />
        </mxCell>
        <mxCell id="rad2TlyHusP4lz5AHPMq-190" value="" style="whiteSpace=wrap;html=1;aspect=fixed;fillColor=#E6E6E6;rounded=1;fontStyle=1" parent="rad2TlyHusP4lz5AHPMq-1" vertex="1">
          <mxGeometry x="477.5" y="1505" width="40" height="40" as="geometry" />
        </mxCell>
        <mxCell id="rad2TlyHusP4lz5AHPMq-191" value="scroll down" style="whiteSpace=wrap;html=1;aspect=fixed;fillColor=#E6E6E6;rounded=1;fontStyle=1" parent="rad2TlyHusP4lz5AHPMq-1" vertex="1">
          <mxGeometry x="517.5" y="1497" width="40" height="40" as="geometry" />
        </mxCell>
        <mxCell id="rad2TlyHusP4lz5AHPMq-192" value="" style="whiteSpace=wrap;html=1;aspect=fixed;fillColor=#E6E6E6;rounded=1;fontStyle=1" parent="rad2TlyHusP4lz5AHPMq-1" vertex="1">
          <mxGeometry x="557.5" y="1482" width="40" height="40" as="geometry" />
        </mxCell>
        <mxCell id="rad2TlyHusP4lz5AHPMq-193" value="" style="whiteSpace=wrap;html=1;aspect=fixed;fillColor=#E6E6E6;rounded=1;fontStyle=1" parent="rad2TlyHusP4lz5AHPMq-1" vertex="1">
          <mxGeometry x="597.5" y="1497" width="40" height="40" as="geometry" />
        </mxCell>
        <mxCell id="rad2TlyHusP4lz5AHPMq-194" value="" style="whiteSpace=wrap;html=1;aspect=fixed;fillColor=#E6E6E6;rounded=1;fontStyle=1" parent="rad2TlyHusP4lz5AHPMq-1" vertex="1">
          <mxGeometry x="637.5" y="1523" width="40" height="40" as="geometry" />
        </mxCell>
        <mxCell id="rad2TlyHusP4lz5AHPMq-195" value="" style="whiteSpace=wrap;html=1;aspect=fixed;rotation=-15;fillColor=none;strokeColor=#F0F0F0;rounded=1;dashed=1;fontStyle=1" parent="rad2TlyHusP4lz5AHPMq-1" vertex="1">
          <mxGeometry x="497.5" y="1551" width="40" height="40" as="geometry" />
        </mxCell>
        <mxCell id="rad2TlyHusP4lz5AHPMq-196" value="Ext" style="whiteSpace=wrap;html=1;aspect=fixed;rotation=15;fillColor=#E6E6E6;strokeColor=default;rounded=1;shadow=0;glass=0;sketch=0;fontStyle=1" parent="rad2TlyHusP4lz5AHPMq-1" vertex="1">
          <mxGeometry x="237.5" y="1551" width="40" height="40" as="geometry" />
        </mxCell>
        <mxCell id="rad2TlyHusP4lz5AHPMq-197" value="" style="whiteSpace=wrap;html=1;aspect=fixed;rotation=15;fillColor=#E6E6E6;strokeColor=default;rounded=1;shadow=0;glass=0;sketch=0;fontStyle=1" parent="rad2TlyHusP4lz5AHPMq-1" vertex="1">
          <mxGeometry x="237.5" y="1551" width="40" height="40" as="geometry" />
        </mxCell>
        <mxCell id="rad2TlyHusP4lz5AHPMq-198" value="" style="whiteSpace=wrap;html=1;aspect=fixed;rotation=-30;fillColor=none;strokeColor=#F0F0F0;rounded=1;shadow=0;glass=0;sketch=0;dashed=1;fontStyle=1" parent="rad2TlyHusP4lz5AHPMq-1" vertex="1">
          <mxGeometry x="449" y="1569" width="40" height="40" as="geometry" />
        </mxCell>
        <mxCell id="rad2TlyHusP4lz5AHPMq-199" value="" style="whiteSpace=wrap;html=1;aspect=fixed;fillColor=#E6E6E6;rounded=1;fontStyle=1" parent="rad2TlyHusP4lz5AHPMq-1" vertex="1">
          <mxGeometry x="97.5" y="1525" width="40" height="40" as="geometry" />
        </mxCell>
        <mxCell id="rad2TlyHusP4lz5AHPMq-200" value="←&#xa;" style="whiteSpace=wrap;html=1;aspect=fixed;fillColor=#E6E6E6;rounded=1;fontStyle=1" parent="rad2TlyHusP4lz5AHPMq-1" vertex="1">
          <mxGeometry x="138" y="1457" width="40" height="40" as="geometry" />
        </mxCell>
        <mxCell id="rad2TlyHusP4lz5AHPMq-201" value="↓" style="whiteSpace=wrap;html=1;aspect=fixed;fillColor=#E6E6E6;rounded=1;fontStyle=1" parent="rad2TlyHusP4lz5AHPMq-1" vertex="1">
          <mxGeometry x="178" y="1442" width="40" height="40" as="geometry" />
        </mxCell>
        <mxCell id="rad2TlyHusP4lz5AHPMq-202" value="" style="whiteSpace=wrap;html=1;aspect=fixed;fillColor=#E6E6E6;rounded=1;strokeColor=default;fontStyle=1" parent="rad2TlyHusP4lz5AHPMq-1" vertex="1">
          <mxGeometry x="97.5" y="1485" width="40" height="40" as="geometry" />
        </mxCell>
        <mxCell id="rad2TlyHusP4lz5AHPMq-203" value="" style="whiteSpace=wrap;html=1;aspect=fixed;fillColor=#E6E6E6;rounded=1;strokeColor=default;fontStyle=1" parent="rad2TlyHusP4lz5AHPMq-1" vertex="1">
          <mxGeometry x="98" y="1445" width="40" height="40" as="geometry" />
        </mxCell>
        <mxCell id="rad2TlyHusP4lz5AHPMq-204" value="" style="whiteSpace=wrap;html=1;aspect=fixed;fillColor=#E6E6E6;rounded=1;strokeColor=default;fontStyle=1" parent="rad2TlyHusP4lz5AHPMq-1" vertex="1">
          <mxGeometry x="138" y="1417" width="40" height="40" as="geometry" />
        </mxCell>
        <mxCell id="rad2TlyHusP4lz5AHPMq-205" value="F6" style="whiteSpace=wrap;html=1;aspect=fixed;fillColor=#E6E6E6;rounded=1;strokeColor=default;fontStyle=1" parent="rad2TlyHusP4lz5AHPMq-1" vertex="1">
          <mxGeometry x="137.5" y="1117" width="40" height="40" as="geometry" />
        </mxCell>
        <mxCell id="rad2TlyHusP4lz5AHPMq-206" value="F9" style="whiteSpace=wrap;html=1;aspect=fixed;fillColor=#E6E6E6;rounded=1;fontStyle=1" parent="rad2TlyHusP4lz5AHPMq-1" vertex="1">
          <mxGeometry x="98" y="1184" width="40" height="40" as="geometry" />
        </mxCell>
        <mxCell id="rad2TlyHusP4lz5AHPMq-207" value="F5" style="whiteSpace=wrap;html=1;aspect=fixed;fillColor=#E6E6E6;rounded=1;strokeColor=default;fontStyle=1" parent="rad2TlyHusP4lz5AHPMq-1" vertex="1">
          <mxGeometry x="97.5" y="1144" width="40" height="40" as="geometry" />
        </mxCell>
        <mxCell id="rad2TlyHusP4lz5AHPMq-208" value="F7" style="whiteSpace=wrap;html=1;aspect=fixed;fillColor=#E6E6E6;rounded=1;strokeColor=default;fontStyle=1" parent="rad2TlyHusP4lz5AHPMq-1" vertex="1">
          <mxGeometry x="178" y="1102" width="40" height="40" as="geometry" />
        </mxCell>
        <mxCell id="AuxAhh_R6eT21EtZq-zR-0" value="bs&lt;br&gt;(nav)" style="whiteSpace=wrap;html=1;aspect=fixed;rotation=40;fontSize=14;fontFamily=Verdana;fontStyle=1;fontColor=#ffffff;fillColor=#A20025;rounded=1;align=center;verticalAlign=middle;strokeColor=#6F0000;" parent="rad2TlyHusP4lz5AHPMq-1" vertex="1">
          <mxGeometry x="326" y="292" width="40" height="40" as="geometry" />
        </mxCell>
        <mxCell id="AuxAhh_R6eT21EtZq-zR-2" value="Del" style="whiteSpace=wrap;html=1;aspect=fixed;rotation=40;fontSize=17;fontFamily=Verdana;fontStyle=1;fontColor=#ffffff;fillColor=#a20025;rounded=1;align=center;verticalAlign=middle;strokeColor=#6F0000;" parent="rad2TlyHusP4lz5AHPMq-1" vertex="1">
          <mxGeometry x="326" y="602.6800000000001" width="40" height="40" as="geometry" />
        </mxCell>
        <mxCell id="AuxAhh_R6eT21EtZq-zR-3" value="" style="whiteSpace=wrap;html=1;aspect=fixed;rotation=40;fontSize=17;fontFamily=Verdana;fontStyle=1;fontColor=#000000;fillColor=#E6E6E6;rounded=1;align=center;verticalAlign=middle;strokeColor=default;" parent="rad2TlyHusP4lz5AHPMq-1" vertex="1">
          <mxGeometry x="325.5" y="930.6800000000001" width="40" height="40" as="geometry" />
        </mxCell>
        <mxCell id="AuxAhh_R6eT21EtZq-zR-4" value="" style="whiteSpace=wrap;html=1;aspect=fixed;rotation=40;fillColor=#E6E6E6;rounded=1;align=center;verticalAlign=middle;strokeColor=default;fontStyle=1" parent="rad2TlyHusP4lz5AHPMq-1" vertex="1">
          <mxGeometry x="326" y="1256" width="40" height="40" as="geometry" />
        </mxCell>
        <mxCell id="AuxAhh_R6eT21EtZq-zR-5" value="shift" style="whiteSpace=wrap;html=1;aspect=fixed;rotation=40;fillColor=#E6E6E6;rounded=1;align=center;verticalAlign=middle;strokeColor=default;fontStyle=1" parent="rad2TlyHusP4lz5AHPMq-1" vertex="1">
          <mxGeometry x="323.5" y="1596" width="40" height="40" as="geometry" />
        </mxCell>
        <mxCell id="AuxAhh_R6eT21EtZq-zR-6" value="" style="whiteSpace=wrap;html=1;aspect=fixed;rotation=-45;fontSize=17;fontFamily=Verdana;fontStyle=1;fontColor=#000000;fillColor=#E6E6E6;rounded=1;strokeColor=default;" parent="rad2TlyHusP4lz5AHPMq-1" vertex="1">
          <mxGeometry x="412" y="932" width="40" height="40" as="geometry" />
        </mxCell>
        <mxCell id="AuxAhh_R6eT21EtZq-zR-7" value="Tab" style="whiteSpace=wrap;html=1;aspect=fixed;rotation=-45;fontSize=17;fontFamily=Verdana;fontStyle=1;fontColor=#ffffff;fillColor=#a20025;rounded=1;strokeColor=#6F0000;" parent="rad2TlyHusP4lz5AHPMq-1" vertex="1">
          <mxGeometry x="412" y="604.6800000000001" width="40" height="40" as="geometry" />
        </mxCell>
        <mxCell id="AuxAhh_R6eT21EtZq-zR-8" value="" style="whiteSpace=wrap;html=1;aspect=fixed;rotation=-45;fillColor=#E6E6E6;rounded=1;fontStyle=1" parent="rad2TlyHusP4lz5AHPMq-1" vertex="1">
          <mxGeometry x="412" y="1259" width="40" height="40" as="geometry" />
        </mxCell>
        <mxCell id="AuxAhh_R6eT21EtZq-zR-9" value="" style="whiteSpace=wrap;html=1;aspect=fixed;rotation=-45;fontSize=17;fontFamily=Verdana;fontStyle=1;fontColor=#000000;fillColor=#E6E6E6;rounded=1;strokeColor=default;" parent="rad2TlyHusP4lz5AHPMq-1" vertex="1">
          <mxGeometry x="410" y="1599" width="40" height="40" as="geometry" />
        </mxCell>
        <mxCell id="AuxAhh_R6eT21EtZq-zR-20" value="&lt;div style=&quot;font-size: 14px;&quot;&gt;spc&lt;br&gt;(nav)&lt;/div&gt;" style="whiteSpace=wrap;html=1;aspect=fixed;rotation=-45;fontSize=14;fontFamily=Verdana;fontStyle=1;fontColor=#ffffff;fillColor=#A20025;rounded=1;strokeColor=#6F0000;" parent="rad2TlyHusP4lz5AHPMq-1" vertex="1">
          <mxGeometry x="412" y="292.00000000000006" width="40" height="40" as="geometry" />
        </mxCell>
        <mxCell id="ZZw0jYwdFCX6BqselvyF-1" value="" style="whiteSpace=wrap;html=1;aspect=fixed;rotation=-15;fontSize=17;fontFamily=Verdana;fontStyle=1;fontColor=#000000;fillColor=#E6E6E6;strokeColor=default;rounded=1;shadow=0;glass=0;sketch=0;" parent="rad2TlyHusP4lz5AHPMq-1" vertex="1">
          <mxGeometry x="498" y="887" width="40" height="40" as="geometry" />
        </mxCell>
        <mxCell id="ZZw0jYwdFCX6BqselvyF-2" value="Q" style="whiteSpace=wrap;html=1;aspect=fixed;fillColor=#E6E6E6;rounded=1;fontStyle=1" parent="rad2TlyHusP4lz5AHPMq-1" vertex="1">
          <mxGeometry x="97" y="138" width="40" height="40" as="geometry" />
        </mxCell>
        <mxCell id="ZZw0jYwdFCX6BqselvyF-3" value="" style="whiteSpace=wrap;html=1;aspect=fixed;fillColor=#E6E6E6;rounded=1;fontStyle=1" parent="rad2TlyHusP4lz5AHPMq-1" vertex="1">
          <mxGeometry x="97.5" y="1794" width="40" height="40" as="geometry" />
        </mxCell>
        <mxCell id="ZZw0jYwdFCX6BqselvyF-4" value="" style="whiteSpace=wrap;html=1;aspect=fixed;fillColor=#E6E6E6;rounded=1;fontStyle=1" parent="rad2TlyHusP4lz5AHPMq-1" vertex="1">
          <mxGeometry x="137.5" y="1767" width="40" height="40" as="geometry" />
        </mxCell>
        <mxCell id="ZZw0jYwdFCX6BqselvyF-5" value="vol up" style="whiteSpace=wrap;html=1;aspect=fixed;fillColor=#E6E6E6;rounded=1;fontStyle=1" parent="rad2TlyHusP4lz5AHPMq-1" vertex="1">
          <mxGeometry x="178" y="1752" width="40" height="40" as="geometry" />
        </mxCell>
        <mxCell id="ZZw0jYwdFCX6BqselvyF-6" value="" style="whiteSpace=wrap;html=1;aspect=fixed;fillColor=#E6E6E6;rounded=1;fontStyle=1" parent="rad2TlyHusP4lz5AHPMq-1" vertex="1">
          <mxGeometry x="218" y="1767" width="40" height="40" as="geometry" />
        </mxCell>
        <mxCell id="ZZw0jYwdFCX6BqselvyF-7" value="bt clr" style="whiteSpace=wrap;html=1;aspect=fixed;fillColor=#E6E6E6;rounded=1;fontStyle=1" parent="rad2TlyHusP4lz5AHPMq-1" vertex="1">
          <mxGeometry x="258" y="1774" width="40" height="40" as="geometry" />
        </mxCell>
        <mxCell id="ZZw0jYwdFCX6BqselvyF-8" value="next" style="whiteSpace=wrap;html=1;aspect=fixed;fillColor=#E6E6E6;rounded=1;strokeColor=default;fontStyle=1" parent="rad2TlyHusP4lz5AHPMq-1" vertex="1">
          <mxGeometry x="218" y="1807" width="40" height="40" as="geometry" />
        </mxCell>
        <mxCell id="ZZw0jYwdFCX6BqselvyF-9" value="bt 0" style="whiteSpace=wrap;html=1;aspect=fixed;fillColor=#E6E6E6;rounded=1;fontStyle=1" parent="rad2TlyHusP4lz5AHPMq-1" vertex="1">
          <mxGeometry x="258" y="1815" width="40" height="40" as="geometry" />
        </mxCell>
        <mxCell id="ZZw0jYwdFCX6BqselvyF-10" value="" style="whiteSpace=wrap;html=1;aspect=fixed;fillColor=#E6E6E6;rounded=1;fontStyle=1" parent="rad2TlyHusP4lz5AHPMq-1" vertex="1">
          <mxGeometry x="138" y="1847" width="40" height="40" as="geometry" />
        </mxCell>
        <mxCell id="ZZw0jYwdFCX6BqselvyF-11" value="vol down" style="whiteSpace=wrap;html=1;aspect=fixed;fillColor=#E6E6E6;rounded=1;fontStyle=1" parent="rad2TlyHusP4lz5AHPMq-1" vertex="1">
          <mxGeometry x="178" y="1832" width="40" height="40" as="geometry" />
        </mxCell>
        <mxCell id="ZZw0jYwdFCX6BqselvyF-12" value="mute" style="whiteSpace=wrap;html=1;aspect=fixed;fillColor=#E6E6E6;rounded=1;fontStyle=1" parent="rad2TlyHusP4lz5AHPMq-1" vertex="1">
          <mxGeometry x="218" y="1847" width="40" height="40" as="geometry" />
        </mxCell>
        <mxCell id="ZZw0jYwdFCX6BqselvyF-13" value="bt 1" style="whiteSpace=wrap;html=1;aspect=fixed;fillColor=#E6E6E6;rounded=1;fontStyle=1" parent="rad2TlyHusP4lz5AHPMq-1" vertex="1">
          <mxGeometry x="258" y="1855" width="40" height="40" as="geometry" />
        </mxCell>
        <mxCell id="ZZw0jYwdFCX6BqselvyF-14" value="" style="whiteSpace=wrap;html=1;aspect=fixed;rotation=15;fillColor=#E6E6E6;rounded=1;strokeColor=default;fontStyle=1" parent="rad2TlyHusP4lz5AHPMq-1" vertex="1">
          <mxGeometry x="238" y="1901" width="40" height="40" as="geometry" />
        </mxCell>
        <mxCell id="ZZw0jYwdFCX6BqselvyF-15" value="" style="whiteSpace=wrap;html=1;aspect=fixed;rotation=30;fillColor=#E6E6E6;rounded=1;strokeColor=default;fontStyle=1" parent="rad2TlyHusP4lz5AHPMq-1" vertex="1">
          <mxGeometry x="286" y="1919" width="40" height="40" as="geometry" />
        </mxCell>
        <mxCell id="ZZw0jYwdFCX6BqselvyF-16" value="" style="whiteSpace=wrap;html=1;aspect=fixed;fillColor=#E6E6E6;rounded=1;fontStyle=1" parent="rad2TlyHusP4lz5AHPMq-1" vertex="1">
          <mxGeometry x="478" y="1775" width="40" height="40" as="geometry" />
        </mxCell>
        <mxCell id="ZZw0jYwdFCX6BqselvyF-17" value="zoom in" style="whiteSpace=wrap;html=1;aspect=fixed;fillColor=#E6E6E6;rounded=1;fontStyle=1" parent="rad2TlyHusP4lz5AHPMq-1" vertex="1">
          <mxGeometry x="518" y="1767" width="40" height="40" as="geometry" />
        </mxCell>
        <mxCell id="ZZw0jYwdFCX6BqselvyF-18" value="↑&#xa;win" style="whiteSpace=wrap;html=1;aspect=fixed;fillColor=#E6E6E6;rounded=1;fontStyle=1" parent="rad2TlyHusP4lz5AHPMq-1" vertex="1">
          <mxGeometry x="558" y="1752" width="40" height="40" as="geometry" />
        </mxCell>
        <mxCell id="ZZw0jYwdFCX6BqselvyF-19" value="" style="whiteSpace=wrap;html=1;aspect=fixed;fillColor=#E6E6E6;rounded=1;fontStyle=1" parent="rad2TlyHusP4lz5AHPMq-1" vertex="1">
          <mxGeometry x="598" y="1767" width="40" height="40" as="geometry" />
        </mxCell>
        <mxCell id="ZZw0jYwdFCX6BqselvyF-20" value="" style="whiteSpace=wrap;html=1;aspect=fixed;fillColor=#E6E6E6;rounded=1;fontStyle=1" parent="rad2TlyHusP4lz5AHPMq-1" vertex="1">
          <mxGeometry x="638" y="1794" width="40" height="40" as="geometry" />
        </mxCell>
        <mxCell id="ZZw0jYwdFCX6BqselvyF-21" value="screen shot" style="whiteSpace=wrap;html=1;aspect=fixed;fillColor=#E6E6E6;rounded=1;fontStyle=1" parent="rad2TlyHusP4lz5AHPMq-1" vertex="1">
          <mxGeometry x="478" y="1815" width="40" height="40" as="geometry" />
        </mxCell>
        <mxCell id="ZZw0jYwdFCX6BqselvyF-22" value="←win" style="whiteSpace=wrap;html=1;aspect=fixed;fillColor=#E6E6E6;rounded=1;strokeColor=default;fontStyle=1" parent="rad2TlyHusP4lz5AHPMq-1" vertex="1">
          <mxGeometry x="518" y="1807" width="40" height="40" as="geometry" />
        </mxCell>
        <mxCell id="ZZw0jYwdFCX6BqselvyF-23" value="win&#xa;↓" style="whiteSpace=wrap;html=1;aspect=fixed;fillColor=#E6E6E6;rounded=1;strokeColor=default;fontStyle=1" parent="rad2TlyHusP4lz5AHPMq-1" vertex="1">
          <mxGeometry x="558" y="1792" width="40" height="40" as="geometry" />
        </mxCell>
        <mxCell id="ZZw0jYwdFCX6BqselvyF-24" value="win→" style="whiteSpace=wrap;html=1;aspect=fixed;fillColor=#E6E6E6;rounded=1;strokeColor=default;fontStyle=1" parent="rad2TlyHusP4lz5AHPMq-1" vertex="1">
          <mxGeometry x="597.5" y="1807" width="40" height="40" as="geometry" />
        </mxCell>
        <mxCell id="ZZw0jYwdFCX6BqselvyF-25" value="full screen" style="whiteSpace=wrap;html=1;aspect=fixed;fillColor=#E6E6E6;rounded=1;strokeColor=default;fontStyle=1" parent="rad2TlyHusP4lz5AHPMq-1" vertex="1">
          <mxGeometry x="638" y="1834" width="40" height="40" as="geometry" />
        </mxCell>
        <mxCell id="ZZw0jYwdFCX6BqselvyF-26" value="" style="whiteSpace=wrap;html=1;aspect=fixed;fillColor=#E6E6E6;rounded=1;fontStyle=1" parent="rad2TlyHusP4lz5AHPMq-1" vertex="1">
          <mxGeometry x="477.5" y="1855" width="40" height="40" as="geometry" />
        </mxCell>
        <mxCell id="ZZw0jYwdFCX6BqselvyF-27" value="zoom out" style="whiteSpace=wrap;html=1;aspect=fixed;fillColor=#E6E6E6;rounded=1;fontStyle=1" parent="rad2TlyHusP4lz5AHPMq-1" vertex="1">
          <mxGeometry x="518" y="1847" width="40" height="40" as="geometry" />
        </mxCell>
        <mxCell id="ZZw0jYwdFCX6BqselvyF-28" value="" style="whiteSpace=wrap;html=1;aspect=fixed;fillColor=#E6E6E6;rounded=1;fontStyle=1" parent="rad2TlyHusP4lz5AHPMq-1" vertex="1">
          <mxGeometry x="558" y="1832" width="40" height="40" as="geometry" />
        </mxCell>
        <mxCell id="ZZw0jYwdFCX6BqselvyF-29" value="" style="whiteSpace=wrap;html=1;aspect=fixed;fillColor=#E6E6E6;rounded=1;fontStyle=1" parent="rad2TlyHusP4lz5AHPMq-1" vertex="1">
          <mxGeometry x="598" y="1847" width="40" height="40" as="geometry" />
        </mxCell>
        <mxCell id="ZZw0jYwdFCX6BqselvyF-30" value="" style="whiteSpace=wrap;html=1;aspect=fixed;fillColor=#E6E6E6;rounded=1;fontStyle=1" parent="rad2TlyHusP4lz5AHPMq-1" vertex="1">
          <mxGeometry x="638" y="1874" width="40" height="40" as="geometry" />
        </mxCell>
        <mxCell id="ZZw0jYwdFCX6BqselvyF-31" value="" style="whiteSpace=wrap;html=1;aspect=fixed;rotation=-30;fillColor=#E6E6E6;strokeColor=default;rounded=1;shadow=0;glass=0;sketch=0;fontStyle=1" parent="rad2TlyHusP4lz5AHPMq-1" vertex="1">
          <mxGeometry x="450" y="1919" width="40" height="40" as="geometry" />
        </mxCell>
        <mxCell id="ZZw0jYwdFCX6BqselvyF-32" value="" style="whiteSpace=wrap;html=1;aspect=fixed;rotation=-15;fillColor=#97D077;strokeColor=#F0F0F0;rounded=1;shadow=0;glass=0;sketch=0;fontStyle=1" parent="rad2TlyHusP4lz5AHPMq-1" vertex="1">
          <mxGeometry x="498" y="1901" width="40" height="40" as="geometry" />
        </mxCell>
        <mxCell id="ZZw0jYwdFCX6BqselvyF-33" value="Win/System" style="rounded=0;whiteSpace=wrap;html=1;fontFamily=Verdana;fontSize=17;fontStyle=1;fillColor=#97D077;strokeColor=#97D077;fontColor=#000000;" parent="rad2TlyHusP4lz5AHPMq-1" vertex="1">
          <mxGeometry x="287.5" y="1721" width="210" height="30" as="geometry" />
        </mxCell>
        <mxCell id="ZZw0jYwdFCX6BqselvyF-34" value="prev" style="whiteSpace=wrap;html=1;aspect=fixed;fillColor=#E6E6E6;rounded=1;strokeColor=default;fontStyle=1" parent="rad2TlyHusP4lz5AHPMq-1" vertex="1">
          <mxGeometry x="137.5" y="1807" width="40" height="40" as="geometry" />
        </mxCell>
        <mxCell id="ZZw0jYwdFCX6BqselvyF-35" value="" style="whiteSpace=wrap;html=1;aspect=fixed;fillColor=#E6E6E6;rounded=1;fontStyle=1" parent="rad2TlyHusP4lz5AHPMq-1" vertex="1">
          <mxGeometry x="98" y="1874" width="40" height="40" as="geometry" />
        </mxCell>
        <mxCell id="ZZw0jYwdFCX6BqselvyF-36" value="" style="whiteSpace=wrap;html=1;aspect=fixed;fillColor=#E6E6E6;rounded=1;strokeColor=default;fontStyle=1" parent="rad2TlyHusP4lz5AHPMq-1" vertex="1">
          <mxGeometry x="97.5" y="1834" width="40" height="40" as="geometry" />
        </mxCell>
        <mxCell id="ZZw0jYwdFCX6BqselvyF-37" value="play" style="whiteSpace=wrap;html=1;aspect=fixed;fillColor=#E6E6E6;rounded=1;strokeColor=default;fontStyle=1" parent="rad2TlyHusP4lz5AHPMq-1" vertex="1">
          <mxGeometry x="178" y="1792" width="40" height="40" as="geometry" />
        </mxCell>
        <mxCell id="ZZw0jYwdFCX6BqselvyF-38" value="" style="whiteSpace=wrap;html=1;aspect=fixed;rotation=40;fillColor=#E6E6E6;rounded=1;align=center;verticalAlign=middle;strokeColor=default;fontStyle=1" parent="rad2TlyHusP4lz5AHPMq-1" vertex="1">
          <mxGeometry x="326" y="1946" width="40" height="40" as="geometry" />
        </mxCell>
        <mxCell id="ZZw0jYwdFCX6BqselvyF-39" value="" style="whiteSpace=wrap;html=1;aspect=fixed;rotation=-45;fillColor=#E6E6E6;rounded=1;fontStyle=1" parent="rad2TlyHusP4lz5AHPMq-1" vertex="1">
          <mxGeometry x="412" y="1949" width="40" height="40" as="geometry" />
        </mxCell>
        <mxCell id="ZZw0jYwdFCX6BqselvyF-40" value="" style="whiteSpace=wrap;html=1;aspect=fixed;rotation=-30;fillColor=#FF9933;strokeColor=#F0F0F0;rounded=1;shadow=0;glass=0;sketch=0;fontStyle=1" parent="rad2TlyHusP4lz5AHPMq-1" vertex="1">
          <mxGeometry x="450" y="1569" width="40" height="40" as="geometry" />
        </mxCell>
        <mxCell id="ZZw0jYwdFCX6BqselvyF-41" value="" style="whiteSpace=wrap;html=1;aspect=fixed;rotation=-15;fillColor=#E6E6E6;strokeColor=default;rounded=1;shadow=0;glass=0;sketch=0;fontStyle=1" parent="rad2TlyHusP4lz5AHPMq-1" vertex="1">
          <mxGeometry x="498" y="1551" width="40" height="40" as="geometry" />
        </mxCell>
      </root>
    </mxGraphModel>
  </diagram>
</mxfile>
